<?xml version="1.0" encoding="utf-8"?>
<!-- Generator: Adobe Illustrator 24.2.1, SVG Export Plug-In . SVG Version: 6.00 Build 0)  -->
<svg version="1.1" id="Layer_1" xmlns="http://www.w3.org/2000/svg" xmlns:xlink="http://www.w3.org/1999/xlink" x="0px" y="0px"
	 viewBox="0 0 960 560" style="enable-background:new 0 0 960 560;" xml:space="preserve">
<style type="text/css">
	.st0{fill:#FFFFFF;}
	.st1{fill:url(#SVGID_1_);}
	.st2{fill:url(#SVGID_2_);}
	.st3{fill:url(#SVGID_3_);}
	.st4{fill:url(#SVGID_4_);}
	.st5{fill:url(#SVGID_5_);}
	.st6{fill:url(#SVGID_6_);}
	.st7{fill:url(#SVGID_7_);}
	.st8{fill:url(#SVGID_8_);}
	.st9{fill:url(#SVGID_9_);}
	.st10{fill:url(#SVGID_10_);}
	.st11{fill:url(#SVGID_11_);}
	.st12{fill:url(#SVGID_12_);}
	.st13{fill:url(#SVGID_13_);}
	.st14{fill:url(#SVGID_14_);}
	.st15{fill:url(#SVGID_15_);}
	.st16{fill:url(#SVGID_16_);}
	.st17{fill:url(#SVGID_17_);}
	.st18{fill:url(#SVGID_18_);}
	.st19{fill:url(#SVGID_19_);}
	.st20{fill:url(#SVGID_20_);}
	.st21{fill:url(#SVGID_21_);}
	.st22{fill:url(#SVGID_22_);}
	.st23{fill:url(#SVGID_23_);}
	.st24{fill:url(#SVGID_24_);}
	.st25{fill:url(#SVGID_25_);}
	.st26{fill:url(#SVGID_26_);}
	.st27{fill:url(#SVGID_27_);}
	.st28{fill:url(#SVGID_28_);}
	.st29{fill:url(#SVGID_29_);}
	.st30{fill:url(#SVGID_30_);}
	.st31{fill:url(#SVGID_31_);}
	.st32{fill:url(#SVGID_32_);}
	.st33{fill:url(#SVGID_33_);}
	.st34{fill:url(#SVGID_34_);}
	.st35{fill:url(#SVGID_35_);}
	.st36{fill:url(#SVGID_36_);}
	.st37{fill:url(#SVGID_37_);}
	.st38{fill:url(#SVGID_38_);}
	.st39{fill:url(#SVGID_39_);}
	.st40{fill:url(#SVGID_40_);}
	.st41{fill:url(#SVGID_41_);}
	.st42{fill:url(#SVGID_42_);}
</style>
<g>
	<g>
		<path class="st0" d="M249.59,249.88c-0.45-1.46-1.11-2.83-1.98-4.1c-0.83-1.21-1.85-2.31-3.08-3.27c-0.61-0.46-1.26-0.9-1.96-1.27
			c0.09-1.48-0.04-3.01-0.37-4.54c-1.27-6.14-5.63-12.28-11.49-15.64c-4.62-2.66-11.28-3.81-17.39-2.64
			c-2.83-4.35-6.83-7.83-11.56-10.19c0.08-0.29,0.15-0.58,0.2-0.87l0.01,0c0.56-2.63,0.6-5.4-0.02-8.19
			c-2.37-10.69-13.23-17.37-24.26-14.93c-6,1.33-10.8,5.09-13.57,9.97c-5.52-5.36-11.31-8.2-16.79-7.7
			c-7.14-11.26-20.75-17.42-34.44-14.38c-9.09,2.01-16.41,7.67-20.83,15.11c-0.12,0.18-0.21,0.35-0.31,0.53
			c-5.02-3.92-11.9-5.66-18.88-4.11c-4.76,1.05-8.82,3.47-11.84,6.69c-4.58-7.62-14.36-11.74-24.38-9.52
			c-12.24,2.71-20.19,13.86-17.74,24.91c0.04,0.2,0.11,0.39,0.17,0.59c-1.48-0.15-2.98-0.21-4.48-0.14
			c-6.13,0.3-11.67,2.34-16.36,5.54c-1.26,0.84-2.45,1.78-3.58,2.79c-1.31,1.16-2.54,2.44-3.66,3.78c-1.01,1.2-1.94,2.48-2.8,3.8
			c-2.76,4.27-4.64,9.12-5.5,14.09c-2.08,12.17,4.26,26.57,15.35,33.49c-0.19,0.31-0.37,0.63-0.54,0.95
			c-0.02,0.04-0.05,0.09-0.06,0.13c-0.02,0.03-0.03,0.06-0.04,0.09c-1.61,2.36-2.7,4.85-3.28,7.31
			c-2.72,11.26,4.45,22.49,15.52,23.54c2.23,0.21,4.61,0.02,7.1-0.67c-0.89,2.52-1.3,5-1.31,7.4
			c-0.04,14.05,13.83,25.23,27.96,23.57c4-0.47,8.03-1.98,11.77-4.75c0.85-0.63,1.69-1.33,2.5-2.09c0.93-0.86,1.83-1.82,2.7-2.87
			c0.23-0.27,0.46-0.56,0.69-0.84c0.14,0.06,0.28,0.12,0.42,0.18c0.48-0.67,0.86-1.23,1.29-1.93c4.05,2.2,8.4,4.5,12.68,6.23
			c0.45,0.25,0.7,0.28,1.18,0.48c22.05,8.68,46.84,11.1,71.72,5.59c34.44-7.63,62.37-29.36,79.16-57.4
			c0.97,0.36,1.79,0.57,2.79,0.73c0.13-0.28,0.24-0.55,0.35-0.82c0.28,0.02,0.57,0.03,0.84,0.02c1.65,0.03,3.23-0.2,4.73-0.6
			c1.57-0.42,3.07-1.08,4.45-1.88c4.45-2.59,7.67-6.76,8.83-10.46C250.64,257.82,250.75,253.62,249.59,249.88z M18.58,301.55
			l-1.62-0.57c0.93-0.27,1.87-0.58,2.83-0.99C19.46,300.33,18.58,301.55,18.58,301.55z"/>
		<g>
			<linearGradient id="SVGID_1_" gradientUnits="userSpaceOnUse" x1="45.7508" y1="240.4774" x2="80.5973" y2="240.4774">
				<stop  offset="0" style="stop-color:#26A9E0"/>
				<stop  offset="0.9806" style="stop-color:#2B388F"/>
			</linearGradient>
			<path class="st1" d="M78.58,238.53c-0.93,4.5-3.93,8.68-7.81,11.12c-4.03,2.63-9.12,3.48-13.82,2.6
				c-4.07-0.76-7.67-2.55-11.2-4.65c3.16,3.06,6.91,5.54,11.24,6.58c5.22,1.23,10.6,0.47,15.16-2.4c4.29-2.8,7.45-7.39,8.23-12.49
				c0.72-4.7-0.45-9.05-2.86-13.08C78.86,230.22,79.57,234.34,78.58,238.53z"/>
			<linearGradient id="SVGID_2_" gradientUnits="userSpaceOnUse" x1="36.9795" y1="295.5598" x2="47.8766" y2="295.5598">
				<stop  offset="0" style="stop-color:#26A9E0"/>
				<stop  offset="0.9806" style="stop-color:#2B388F"/>
			</linearGradient>
			<path class="st2" d="M43.19,303.55c-1.31,2.24-3.59,3.59-5.68,4.99c2.99-0.63,6.59-2.12,8.14-4.99c1.56-2.39,2.53-5.45,2.13-8.33
				c-0.85-6.2-4.71-10.94-10.81-12.64c2.41,1.85,4.74,3.65,6.23,6.39c1.06,1.95,1.77,3.91,2.01,6.12
				C45.53,297.89,45,301.28,43.19,303.55z"/>
			<linearGradient id="SVGID_3_" gradientUnits="userSpaceOnUse" x1="-19.5376" y1="234.866" x2="101.0908" y2="234.866">
				<stop  offset="0" style="stop-color:#26A9E0"/>
				<stop  offset="0.9806" style="stop-color:#2B388F"/>
			</linearGradient>
			<path class="st3" d="M93.67,188.71c-1.6-1.62-3.44-3.02-5.43-4.14c-4.8-2.71-10.69-3.91-16.16-3.11
				c-4.82,0.71-8.92,2.71-12.73,5.63c-0.08-0.09-0.14-0.19-0.21-0.28c-4.77-5.63-12.23-8.22-19.49-7.64
				c-7.19,0.57-13.88,4.26-18.01,10.2c-3.17,4.55-4.48,9.89-4.54,15.35c-12.62-0.67-24.39,6.42-31,17.14
				c-3.33,5.39-5.5,11.81-5.63,18.18c-0.15,7.34,2.32,14.75,6.48,20.76c3.16,4.56,7.43,8.46,12.45,10.87c-1.1,3.06-1.67,6-1.73,9.32
				c0.35,3.53,1.19,6.5,2.81,9.66c-1.17-3.23-1.64-6.19-1.54-9.63c0.45-3.06,1.32-5.69,2.71-8.39c0.21,0.08,0.42,0.18,0.63,0.25
				c6.2,2.12,12.45,1.63,18.57-0.44c-4.63,0.95-9.26,1.25-13.89,0.06c-4.96-1.27-9.4-3.98-12.98-7.62
				c-7.29-7.41-10.94-18.04-9.48-28.33c0.99-6.99,4.78-13.92,9.64-18.97c5.32-5.52,12.38-9.11,20.05-9.78
				c12.97-1.15,26.63,6.63,32.47,18.26c-3.44-9.61-12.1-16.98-21.83-19.95c-0.21-2.93-0.1-5.71,0.45-8.67
				c0.98-3.34,2.32-6.14,4.32-8.97c-2.43,2.66-4.58,5.58-5.69,9.06c-0.84,2.64-1.27,5.24-1.45,7.94c-0.53-0.12-1.06-0.22-1.59-0.31
				c-0.3-5.33,0.76-10.62,3.88-15.07c3.86-5.51,10.19-8.69,16.85-9.1c6.56-0.41,13.23,2.12,17.52,7.18
				c1.27,1.49,2.22,3.13,2.92,4.86c-0.01,0.01-0.02,0.01-0.03,0.02c0.02,0.03,0.05,0.06,0.07,0.09c1.32,3.32,1.64,6.96,1.12,10.62
				c0.64-3.25,0.57-6.5-0.24-9.56c0.23,0.27,0.45,0.54,0.68,0.81c2.48-2.34,5.22-4.42,8.57-5.35c3.18-0.88,6.15-1.07,9.42-0.82
				c-3.51-0.72-7.15-1.1-10.67-0.16c-3.16,0.84-5.8,2.18-8.43,4.02c-0.24-0.67-0.52-1.33-0.83-1.97c0.17,0.2,0.35,0.4,0.52,0.6
				c3.36-3.17,7.18-5.49,11.83-6.19c4.97-0.75,10.13,0.14,14.54,2.57c4.36,2.39,8.03,6.27,9.52,11.09c1.36,4.4,0.85,8.68-0.52,13
				c1.88-4.57,2.79-9.36,1.39-14.23c-0.73-2.54-1.99-4.85-3.6-6.9c0.63-1.78,1.32-3.46,2.15-5.16c1.1-1.66,2.24-3.13,3.58-4.61
				c-1.67,1.2-3.14,2.43-4.61,3.86C95.46,186.03,94.55,187.35,93.67,188.71z"/>
			<linearGradient id="SVGID_4_" gradientUnits="userSpaceOnUse" x1="-7.878" y1="302.1264" x2="63.9464" y2="302.1264">
				<stop  offset="0" style="stop-color:#26A9E0"/>
				<stop  offset="0.9806" style="stop-color:#2B388F"/>
			</linearGradient>
			<path class="st4" d="M62.89,319.43c-0.04,0.06-0.07,0.11-0.09,0.16c-0.43,0.71-0.88,1.38-1.36,2.05
				c-0.2,0.31-0.42,0.62-0.66,0.91c-0.16,0.21-0.32,0.44-0.5,0.64c-0.64,0.81-1.33,1.59-2.06,2.32c-0.74,0.76-1.53,1.49-2.37,2.15
				c-3.19,2.61-6.91,4.48-10.99,5.3c-0.66,0.15-1.31,0.25-1.99,0.33c-7.25,0.88-14.66-1.56-20.27-6.19
				c-5.43-4.5-9.03-11.2-9.14-18.31c-0.01-0.82,0.02-1.62,0.09-2.42c0.12-1.23,0.33-2.45,0.63-3.65c-1.12,0.25-2.26,0.4-3.38,0.44
				c-4.67,0.19-9.33-1.37-13.02-5.03c-5.73-5.69-7.03-14-4.27-21.05c0.89-2.28,2.19-4.42,3.91-6.32c-1.22,3.01-2.16,5.97-2.41,9.14
				c-0.08,0.78-0.11,1.58-0.08,2.39c0.1,4.78,2.06,9.47,5.34,12.93c2.13,2.24,4.85,3.78,7.81,4.57c1.47,0.39,3,0.6,4.54,0.6
				c2.79,0.01,5.4-0.61,7.98-1.43c1.05-0.32,2.09-0.7,3.13-1.07c0.01,0,0.01,0,0.02-0.01c0,0-0.01,0-0.01,0.01
				c-0.78,0.67-1.59,1.28-2.45,1.83c-0.76,0.5-1.57,0.94-2.38,1.34c-0.22,0.11-0.45,0.22-0.67,0.32c0.15,0.06,0.27,0.1,0.35,0.13
				l0.01,0c-0.99,3.05-1.38,6.15-1.07,9.18c0.31,3.14,1.34,6.2,3.16,9.03c3.9,6.01,10.53,10.1,17.64,10.97
				c1.1,0.13,2.21,0.19,3.3,0.16c4.56-0.1,8.94-1.56,12.74-4.06c0.93-0.6,1.81-1.26,2.65-1.98c0.46-0.38,0.91-0.77,1.34-1.19
				c0.53-0.5,1.04-1.03,1.53-1.56c0,0,0,0,0.01,0c0.48-0.55,0.94-1.1,1.41-1.66c0.31-0.37,0.6-0.76,0.9-1.13
				c0.16-0.22,0.32-0.42,0.47-0.64c0.18-0.23,0.8-1.45,1.06-1.51C64.48,316.97,63.01,319.21,62.89,319.43z"/>
			<linearGradient id="SVGID_5_" gradientUnits="userSpaceOnUse" x1="22.3113" y1="320.4857" x2="49.0506" y2="320.4857">
				<stop  offset="0" style="stop-color:#26A9E0"/>
				<stop  offset="0.9806" style="stop-color:#2B388F"/>
			</linearGradient>
			<path class="st5" d="M26.47,318.73c-1.67-1.68-2.88-3.58-4.16-5.55c2.11,11.7,16.49,18.49,26.74,12.26
				c-2.5,0.37-4.87,0.66-7.41,0.47c-2.76-0.07-5.47-1.12-7.99-2.14C31,322.4,28.59,320.85,26.47,318.73z"/>
			<linearGradient id="SVGID_6_" gradientUnits="userSpaceOnUse" x1="188.7978" y1="234.9755" x2="252.2357" y2="234.9755">
				<stop  offset="0" style="stop-color:#26A9E0"/>
				<stop  offset="0.9806" style="stop-color:#2B388F"/>
			</linearGradient>
			<path class="st6" d="M251.93,259.42c-1.13,6.73-6.24,12.44-12.52,14.93c-0.01,0-0.01,0-0.02,0c-1.34,0.53-2.69,0.88-4.03,1.05
				c-1.49,0.21-2.98,0.22-4.45,0.02c-0.21-0.02-0.43-0.06-0.66-0.09c-1-0.17-1.99-0.43-2.95-0.79c-1.76-0.63-3.44-1.53-5.02-2.71
				c1.88,0.73,3.81,1.26,5.74,1.49c1.36,0.18,2.71,0.21,4.06,0.09c1.71-0.16,3.41-0.59,5.07-1.32c0.23-0.09,0.47-0.19,0.69-0.31
				c1.54-0.75,3-1.69,4.3-2.83l0.01-0.01c3.04-2.63,5.29-6.21,6.04-10.16c0.33-1.71,0.42-3.53,0.24-5.32
				c-0.17-1.9-0.65-3.78-1.47-5.47c0-0.01,0-0.01,0-0.01c-0.71-1.47-1.64-2.81-2.85-3.92c-0.26-0.25-0.54-0.48-0.82-0.71
				c0,0-0.96-0.68-1.82-1.18c-0.17-0.09-0.33-0.18-0.49-0.26c-4.26-2.25-9.24-2.47-14-2.3c4.71-1.32,9.81-1.86,14.42-0.3
				c-0.96-7.85-7.88-15.56-14.9-18.1c-5.64-2.04-12.53-2.21-18.07,0.23c-5.29,2.32-8.43,6.64-10.17,12.02
				c0.25-3.1,0.97-5.98,2.65-8.64c1.39-2.19,3.3-3.97,5.49-5.32c-0.75-2.58-2.27-4.64-4.38-6.52c2.66,1.34,4.72,3.1,6.19,5.52
				c0.37-0.17,0.72-0.34,1.09-0.49c0.24-0.1,0.47-0.18,0.71-0.27c-1.27-3.75-4.2-6.36-7.95-7.92c-4.38-1.82-8.95-1.36-13.25,0.34
				c2.98-1.84,6.13-2.87,9.41-3.03c-0.13-0.06-0.27-0.11-0.42-0.17c1.95-3.6,1.86-9.2-0.44-12.6c3.04,3.07,4.03,8.59,2.99,12.8
				c0.53,0.03,1.08,0.1,1.62,0.19l0.01,0c0.54,0.07,1.1,0.19,1.65,0.31c4.96,1.21,8.88,4.36,11.08,8.82
				c5.68-0.92,11.82,0,16.71,2.78c5.37,3.04,9.62,8.21,11.44,14.13l0,0.01c0.38,1.19,0.65,2.42,0.82,3.68
				c0.15,1.08,0.17,2.17,0.1,3.24c0.31,0.18,0.64,0.35,0.96,0.56l0.17,0.1c1.25,0.81,2.32,1.75,3.24,2.83
				c0.89,1.03,1.63,2.17,2.22,3.39C252.16,250.91,252.62,255.28,251.93,259.42z"/>
			<linearGradient id="SVGID_7_" gradientUnits="userSpaceOnUse" x1="-11.816" y1="237.3876" x2="17.0855" y2="237.3876">
				<stop  offset="0" style="stop-color:#26A9E0"/>
				<stop  offset="0.9806" style="stop-color:#2B388F"/>
			</linearGradient>
			<path class="st7" d="M-7.22,231.16c2.16-5.38,5.73-10.24,10.46-13.64c4.16-2.99,8.84-4.48,13.85-5.27
				c-5.62-0.15-10.89,1.09-15.64,4.2c-5.18,3.39-8.95,8.53-11.21,14.24c-2.09,5.76-2.74,12.1-1.21,18.08
				c1.41,5.5,4.34,10.01,8.54,13.77c-3.13-4.03-5.8-8.62-6.58-13.76C-10.21,242.97-9.41,236.63-7.22,231.16z"/>
		</g>
	</g>
	<g>
		<path class="st0" d="M612.59,157.88c-0.45-1.46-1.11-2.83-1.98-4.1c-0.83-1.21-1.85-2.31-3.08-3.27c-0.61-0.46-1.26-0.9-1.96-1.27
			c0.09-1.48-0.04-3.01-0.37-4.54c-1.27-6.14-5.63-12.28-11.49-15.64c-4.62-2.66-11.28-3.81-17.39-2.64
			c-2.83-4.35-6.83-7.83-11.56-10.19c0.08-0.29,0.15-0.58,0.2-0.87l0.01,0c0.56-2.63,0.6-5.4-0.02-8.19
			c-2.37-10.69-13.23-17.37-24.26-14.93c-6,1.33-10.8,5.09-13.57,9.97c-5.52-5.36-11.31-8.2-16.79-7.7
			c-7.14-11.26-20.75-17.42-34.44-14.38c-9.09,2.01-16.41,7.67-20.83,15.11c-0.12,0.18-0.21,0.35-0.31,0.53
			c-5.02-3.92-11.9-5.66-18.88-4.11c-4.76,1.05-8.82,3.47-11.84,6.69c-4.58-7.62-14.36-11.74-24.38-9.52
			c-12.24,2.71-20.19,13.86-17.74,24.91c0.04,0.2,0.11,0.39,0.17,0.59c-1.48-0.15-2.98-0.21-4.48-0.14
			c-6.13,0.3-11.67,2.34-16.36,5.54c-1.26,0.84-2.45,1.78-3.58,2.79c-1.31,1.16-2.54,2.44-3.66,3.78c-1.01,1.2-1.94,2.48-2.8,3.8
			c-2.76,4.27-4.64,9.12-5.5,14.09c-2.08,12.17,4.26,26.57,15.35,33.49c-0.19,0.31-0.37,0.63-0.54,0.95
			c-0.02,0.04-0.05,0.09-0.06,0.13c-0.02,0.03-0.03,0.06-0.04,0.09c-1.61,2.36-2.7,4.85-3.28,7.31
			c-2.72,11.26,4.45,22.49,15.52,23.54c2.23,0.21,4.61,0.02,7.1-0.67c-0.89,2.52-1.3,5-1.31,7.4
			c-0.04,14.05,13.83,25.23,27.96,23.57c4-0.47,8.03-1.98,11.77-4.75c0.85-0.63,1.69-1.33,2.5-2.09c0.93-0.86,1.83-1.82,2.7-2.87
			c0.23-0.27,0.46-0.56,0.69-0.84c0.14,0.06,0.28,0.12,0.42,0.18c0.48-0.67,0.86-1.23,1.29-1.93c4.05,2.2,8.4,4.5,12.68,6.23
			c0.45,0.25,0.7,0.28,1.18,0.48c22.05,8.68,46.84,11.1,71.72,5.59c34.44-7.63,62.37-29.36,79.16-57.4
			c0.97,0.36,1.79,0.57,2.79,0.73c0.13-0.28,0.24-0.55,0.35-0.82c0.28,0.02,0.57,0.03,0.84,0.02c1.65,0.03,3.23-0.2,4.73-0.6
			c1.57-0.42,3.07-1.08,4.45-1.88c4.45-2.59,7.67-6.76,8.83-10.46C613.64,165.82,613.75,161.62,612.59,157.88z M381.58,209.55
			l-1.62-0.57c0.93-0.27,1.87-0.58,2.83-0.99C382.46,208.33,381.58,209.55,381.58,209.55z"/>
		<g>
			<linearGradient id="SVGID_8_" gradientUnits="userSpaceOnUse" x1="408.7508" y1="148.4774" x2="443.5973" y2="148.4774">
				<stop  offset="0" style="stop-color:#26A9E0"/>
				<stop  offset="0.9806" style="stop-color:#2B388F"/>
			</linearGradient>
			<path class="st8" d="M441.58,146.53c-0.93,4.5-3.93,8.68-7.81,11.12c-4.03,2.63-9.12,3.48-13.82,2.6
				c-4.07-0.76-7.67-2.55-11.2-4.65c3.16,3.06,6.91,5.54,11.24,6.58c5.22,1.23,10.6,0.47,15.16-2.4c4.29-2.8,7.45-7.39,8.23-12.49
				c0.72-4.7-0.45-9.05-2.86-13.08C441.86,138.22,442.57,142.34,441.58,146.53z"/>
			<linearGradient id="SVGID_9_" gradientUnits="userSpaceOnUse" x1="399.9795" y1="203.5598" x2="410.8766" y2="203.5598">
				<stop  offset="0" style="stop-color:#26A9E0"/>
				<stop  offset="0.9806" style="stop-color:#2B388F"/>
			</linearGradient>
			<path class="st9" d="M406.19,211.55c-1.31,2.24-3.59,3.59-5.68,4.99c2.99-0.63,6.59-2.12,8.14-4.99
				c1.56-2.39,2.53-5.45,2.13-8.33c-0.85-6.2-4.71-10.94-10.81-12.64c2.41,1.85,4.74,3.65,6.23,6.39c1.06,1.95,1.77,3.91,2.01,6.12
				C408.53,205.89,408,209.28,406.19,211.55z"/>
			<linearGradient id="SVGID_10_" gradientUnits="userSpaceOnUse" x1="343.4624" y1="142.866" x2="464.0908" y2="142.866">
				<stop  offset="0" style="stop-color:#26A9E0"/>
				<stop  offset="0.9806" style="stop-color:#2B388F"/>
			</linearGradient>
			<path class="st10" d="M456.67,96.71c-1.6-1.62-3.44-3.02-5.43-4.14c-4.8-2.71-10.69-3.91-16.16-3.11
				c-4.82,0.71-8.92,2.71-12.73,5.63c-0.08-0.09-0.14-0.19-0.21-0.28c-4.77-5.63-12.23-8.22-19.49-7.64
				c-7.19,0.57-13.88,4.26-18.01,10.2c-3.17,4.55-4.48,9.89-4.54,15.35c-12.62-0.67-24.39,6.42-31,17.14
				c-3.33,5.39-5.5,11.81-5.63,18.18c-0.15,7.34,2.32,14.75,6.48,20.76c3.16,4.56,7.43,8.46,12.45,10.87c-1.1,3.06-1.67,6-1.73,9.32
				c0.35,3.53,1.19,6.5,2.81,9.66c-1.17-3.23-1.64-6.19-1.54-9.63c0.45-3.06,1.32-5.69,2.71-8.39c0.21,0.08,0.42,0.18,0.63,0.25
				c6.2,2.12,12.45,1.63,18.57-0.44c-4.63,0.95-9.26,1.25-13.89,0.06c-4.96-1.27-9.4-3.98-12.98-7.62
				c-7.29-7.41-10.94-18.04-9.48-28.33c0.99-6.99,4.78-13.92,9.64-18.97c5.32-5.52,12.38-9.11,20.05-9.78
				c12.97-1.15,26.63,6.63,32.47,18.26c-3.44-9.61-12.1-16.98-21.83-19.95c-0.21-2.93-0.1-5.71,0.45-8.67
				c0.98-3.34,2.32-6.14,4.32-8.97c-2.43,2.66-4.58,5.58-5.69,9.06c-0.84,2.64-1.27,5.24-1.45,7.94c-0.53-0.12-1.06-0.22-1.59-0.31
				c-0.3-5.33,0.76-10.62,3.88-15.07c3.86-5.51,10.19-8.69,16.85-9.1c6.56-0.41,13.23,2.12,17.52,7.18
				c1.27,1.49,2.22,3.13,2.92,4.86c-0.01,0.01-0.02,0.01-0.03,0.02c0.02,0.03,0.05,0.06,0.07,0.09c1.32,3.32,1.64,6.96,1.12,10.62
				c0.64-3.25,0.57-6.5-0.24-9.56c0.23,0.27,0.45,0.54,0.68,0.81c2.48-2.34,5.22-4.42,8.57-5.35c3.18-0.88,6.15-1.07,9.42-0.82
				c-3.51-0.72-7.15-1.1-10.67-0.16c-3.16,0.84-5.8,2.18-8.43,4.02c-0.24-0.67-0.52-1.33-0.83-1.97c0.17,0.2,0.35,0.4,0.52,0.6
				c3.36-3.17,7.18-5.49,11.83-6.19c4.97-0.75,10.13,0.14,14.54,2.57c4.36,2.39,8.03,6.27,9.52,11.09c1.36,4.4,0.85,8.68-0.52,13
				c1.88-4.57,2.79-9.36,1.39-14.23c-0.73-2.54-1.99-4.85-3.6-6.9c0.63-1.78,1.32-3.46,2.15-5.16c1.1-1.66,2.24-3.13,3.58-4.61
				c-1.67,1.2-3.14,2.43-4.61,3.86C458.46,94.03,457.55,95.35,456.67,96.71z"/>
			<linearGradient id="SVGID_11_" gradientUnits="userSpaceOnUse" x1="355.1219" y1="210.1264" x2="426.9464" y2="210.1264">
				<stop  offset="0" style="stop-color:#26A9E0"/>
				<stop  offset="0.9806" style="stop-color:#2B388F"/>
			</linearGradient>
			<path class="st11" d="M425.89,227.43c-0.04,0.06-0.07,0.11-0.09,0.16c-0.43,0.71-0.88,1.38-1.36,2.05
				c-0.2,0.31-0.42,0.62-0.66,0.91c-0.16,0.21-0.32,0.44-0.5,0.64c-0.64,0.81-1.33,1.59-2.06,2.32c-0.74,0.76-1.53,1.49-2.37,2.15
				c-3.19,2.61-6.91,4.48-10.99,5.31c-0.66,0.15-1.31,0.25-1.99,0.33c-7.25,0.88-14.66-1.56-20.27-6.19
				c-5.43-4.5-9.03-11.2-9.14-18.31c-0.01-0.82,0.02-1.62,0.09-2.42c0.12-1.23,0.33-2.45,0.63-3.65c-1.12,0.25-2.26,0.4-3.38,0.44
				c-4.67,0.19-9.33-1.37-13.02-5.03c-5.73-5.69-7.03-14-4.27-21.05c0.89-2.28,2.19-4.42,3.91-6.32c-1.22,3.01-2.16,5.97-2.41,9.14
				c-0.08,0.78-0.11,1.58-0.08,2.39c0.1,4.78,2.06,9.47,5.34,12.93c2.13,2.24,4.85,3.78,7.81,4.57c1.47,0.39,3,0.6,4.54,0.6
				c2.79,0.01,5.4-0.61,7.98-1.43c1.05-0.32,2.09-0.7,3.13-1.07c0.01,0,0.01,0,0.02-0.01c0,0-0.01,0-0.01,0.01
				c-0.78,0.67-1.59,1.28-2.45,1.83c-0.76,0.5-1.57,0.94-2.38,1.34c-0.22,0.11-0.45,0.22-0.67,0.32c0.15,0.06,0.27,0.1,0.35,0.13
				l0.01,0c-0.99,3.05-1.38,6.15-1.07,9.18c0.31,3.14,1.34,6.2,3.16,9.03c3.9,6.01,10.53,10.1,17.64,10.97
				c1.1,0.13,2.21,0.19,3.3,0.16c4.56-0.1,8.94-1.56,12.74-4.06c0.93-0.6,1.81-1.26,2.65-1.98c0.46-0.38,0.91-0.77,1.34-1.19
				c0.53-0.5,1.04-1.03,1.53-1.56c0,0,0,0,0.01,0c0.48-0.55,0.94-1.1,1.41-1.66c0.31-0.37,0.6-0.76,0.9-1.13
				c0.16-0.22,0.32-0.42,0.47-0.64c0.18-0.23,0.8-1.45,1.06-1.51C427.48,224.97,426.01,227.21,425.89,227.43z"/>
			<linearGradient id="SVGID_12_" gradientUnits="userSpaceOnUse" x1="385.3113" y1="228.4857" x2="412.0506" y2="228.4857">
				<stop  offset="0" style="stop-color:#26A9E0"/>
				<stop  offset="0.9806" style="stop-color:#2B388F"/>
			</linearGradient>
			<path class="st12" d="M389.47,226.73c-1.67-1.68-2.88-3.58-4.16-5.55c2.11,11.7,16.49,18.49,26.74,12.26
				c-2.5,0.37-4.87,0.66-7.41,0.47c-2.76-0.07-5.47-1.12-7.99-2.14C394,230.4,391.59,228.85,389.47,226.73z"/>
			<linearGradient id="SVGID_13_" gradientUnits="userSpaceOnUse" x1="551.7977" y1="142.9755" x2="615.2357" y2="142.9755">
				<stop  offset="0" style="stop-color:#26A9E0"/>
				<stop  offset="0.9806" style="stop-color:#2B388F"/>
			</linearGradient>
			<path class="st13" d="M614.93,167.42c-1.13,6.73-6.24,12.44-12.52,14.93c-0.01,0-0.01,0-0.02,0c-1.34,0.53-2.69,0.88-4.03,1.05
				c-1.49,0.21-2.98,0.22-4.45,0.02c-0.21-0.02-0.43-0.06-0.66-0.09c-1-0.17-1.99-0.43-2.95-0.79c-1.76-0.63-3.44-1.53-5.02-2.71
				c1.88,0.73,3.81,1.26,5.74,1.49c1.36,0.18,2.71,0.21,4.06,0.09c1.71-0.16,3.41-0.59,5.07-1.32c0.23-0.09,0.47-0.19,0.69-0.31
				c1.54-0.75,3-1.69,4.3-2.83l0.01-0.01c3.04-2.63,5.29-6.21,6.04-10.16c0.33-1.71,0.42-3.53,0.24-5.32
				c-0.17-1.9-0.65-3.78-1.47-5.47c0-0.01,0-0.01,0-0.01c-0.71-1.47-1.64-2.81-2.85-3.92c-0.26-0.25-0.54-0.48-0.82-0.71
				c0,0-0.96-0.68-1.82-1.18c-0.17-0.09-0.33-0.18-0.49-0.26c-4.26-2.25-9.24-2.47-14-2.3c4.71-1.32,9.81-1.86,14.42-0.3
				c-0.96-7.85-7.88-15.56-14.9-18.1c-5.64-2.04-12.53-2.21-18.07,0.23c-5.29,2.32-8.43,6.64-10.17,12.02
				c0.25-3.1,0.97-5.98,2.65-8.64c1.39-2.19,3.3-3.97,5.49-5.32c-0.75-2.58-2.27-4.64-4.38-6.52c2.66,1.34,4.72,3.1,6.19,5.52
				c0.37-0.17,0.72-0.34,1.09-0.49c0.24-0.1,0.47-0.18,0.71-0.27c-1.27-3.75-4.2-6.36-7.95-7.92c-4.38-1.82-8.95-1.36-13.25,0.34
				c2.98-1.84,6.13-2.87,9.41-3.03c-0.13-0.06-0.27-0.11-0.42-0.17c1.95-3.6,1.86-9.2-0.44-12.6c3.04,3.07,4.03,8.59,2.99,12.8
				c0.53,0.03,1.08,0.1,1.62,0.19l0.01,0c0.54,0.07,1.1,0.19,1.65,0.31c4.96,1.21,8.88,4.36,11.08,8.82
				c5.68-0.92,11.82,0,16.71,2.78c5.37,3.04,9.62,8.21,11.44,14.13l0,0.01c0.38,1.19,0.65,2.42,0.82,3.68
				c0.15,1.08,0.17,2.17,0.1,3.24c0.32,0.18,0.64,0.35,0.96,0.56l0.17,0.1c1.25,0.81,2.32,1.75,3.24,2.83
				c0.89,1.03,1.63,2.17,2.22,3.39C615.16,158.91,615.62,163.28,614.93,167.42z"/>
			<linearGradient id="SVGID_14_" gradientUnits="userSpaceOnUse" x1="351.184" y1="145.3876" x2="380.0855" y2="145.3876">
				<stop  offset="0" style="stop-color:#26A9E0"/>
				<stop  offset="0.9806" style="stop-color:#2B388F"/>
			</linearGradient>
			<path class="st14" d="M355.78,139.16c2.16-5.38,5.73-10.24,10.46-13.64c4.16-2.99,8.84-4.48,13.85-5.27
				c-5.62-0.15-10.89,1.09-15.64,4.2c-5.18,3.39-8.95,8.53-11.21,14.24c-2.09,5.76-2.74,12.1-1.21,18.08
				c1.41,5.5,4.34,10.01,8.54,13.77c-3.13-4.03-5.8-8.62-6.58-13.76C352.79,150.97,353.59,144.63,355.78,139.16z"/>
		</g>
	</g>
	<g>
		<path class="st0" d="M567.26,249.53c-0.64-2.05-1.57-4-2.79-5.79c-1.17-1.71-2.62-3.27-4.35-4.61c-0.87-0.66-1.77-1.27-2.77-1.8
			c0.12-2.09-0.06-4.24-0.52-6.4c-1.79-8.66-7.94-17.33-16.21-22.07c-6.51-3.75-15.92-5.38-24.55-3.73
			c-3.99-6.14-9.64-11.05-16.31-14.38c0.11-0.41,0.21-0.82,0.28-1.22l0.02,0c0.8-3.71,0.85-7.62-0.02-11.55
			c-3.34-15.09-18.68-24.52-34.24-21.07c-8.47,1.88-15.25,7.19-19.15,14.07c-7.78-7.57-15.96-11.57-23.7-10.87
			c-10.07-15.89-29.28-24.58-48.61-20.29c-12.82,2.84-23.17,10.82-29.4,21.33c-0.16,0.26-0.3,0.49-0.44,0.74
			c-7.08-5.54-16.79-7.99-26.65-5.8c-6.72,1.49-12.44,4.89-16.71,9.45c-6.47-10.75-20.27-16.56-34.41-13.43
			c-17.28,3.83-28.5,19.56-25.04,35.16c0.06,0.28,0.16,0.55,0.24,0.83c-2.09-0.22-4.21-0.3-6.32-0.2
			c-8.65,0.43-16.48,3.3-23.09,7.82c-1.78,1.19-3.46,2.51-5.06,3.94c-1.84,1.64-3.58,3.44-5.17,5.34c-1.43,1.7-2.74,3.5-3.95,5.37
			c-3.89,6.03-6.55,12.86-7.76,19.88c-2.93,17.18,6.01,37.5,21.66,47.27c-0.27,0.43-0.52,0.89-0.77,1.35
			c-0.02,0.06-0.07,0.13-0.09,0.18c-0.03,0.05-0.04,0.08-0.06,0.13c-2.28,3.34-3.8,6.84-4.63,10.32
			c-3.84,15.89,6.28,31.73,21.9,33.23c3.14,0.3,6.5,0.03,10.02-0.95c-1.26,3.55-1.84,7.05-1.85,10.44
			c-0.06,19.83,19.52,35.61,39.46,33.26c5.65-0.67,11.33-2.79,16.6-6.7c1.2-0.89,2.38-1.87,3.53-2.95c1.31-1.21,2.58-2.56,3.81-4.05
			c0.32-0.38,0.65-0.79,0.97-1.19c0.2,0.08,0.39,0.17,0.59,0.25c0.68-0.94,1.21-1.73,1.82-2.73c5.71,3.1,11.85,6.35,17.89,8.79
			c0.64,0.35,0.99,0.4,1.66,0.68c31.11,12.25,66.1,15.66,101.22,7.88c48.61-10.77,88.01-41.43,111.71-81
			c1.36,0.51,2.53,0.8,3.94,1.04c0.19-0.39,0.34-0.77,0.5-1.16c0.39,0.02,0.8,0.04,1.19,0.03c2.32,0.04,4.55-0.28,6.67-0.85
			c2.22-0.6,4.34-1.53,6.28-2.66c6.28-3.66,10.82-9.54,12.47-14.76C568.75,260.74,568.91,254.81,567.26,249.53z M241.26,322.45
			l-2.29-0.8c1.31-0.38,2.63-0.82,4-1.4C242.5,320.73,241.26,322.45,241.26,322.45z"/>
		<g>
			<linearGradient id="SVGID_15_" gradientUnits="userSpaceOnUse" x1="279.6001" y1="236.264" x2="328.7768" y2="236.264">
				<stop  offset="0" style="stop-color:#26A9E0"/>
				<stop  offset="0.9806" style="stop-color:#2B388F"/>
			</linearGradient>
			<path class="st15" d="M325.93,233.51c-1.32,6.35-5.55,12.25-11.02,15.69c-5.69,3.7-12.87,4.92-19.51,3.67
				c-5.75-1.08-10.83-3.59-15.8-6.56c4.46,4.32,9.76,7.82,15.86,9.29c7.36,1.73,14.96,0.66,21.4-3.38
				c6.06-3.96,10.52-10.43,11.62-17.63c1.02-6.64-0.63-12.78-4.03-18.46C326.32,221.79,327.33,227.6,325.93,233.51z"/>
			<linearGradient id="SVGID_16_" gradientUnits="userSpaceOnUse" x1="267.2216" y1="313.9984" x2="282.6001" y2="313.9984">
				<stop  offset="0" style="stop-color:#26A9E0"/>
				<stop  offset="0.9806" style="stop-color:#2B388F"/>
			</linearGradient>
			<path class="st16" d="M275.99,325.27c-1.85,3.17-5.07,5.07-8.02,7.05c4.22-0.88,9.3-2.99,11.49-7.04
				c2.2-3.37,3.57-7.69,3.01-11.76c-1.21-8.74-6.64-15.45-15.25-17.84c3.4,2.6,6.69,5.16,8.79,9.01c1.5,2.75,2.5,5.52,2.84,8.64
				C279.3,317.29,278.53,322.07,275.99,325.27z"/>
			<linearGradient id="SVGID_17_" gradientUnits="userSpaceOnUse" x1="187.4624" y1="228.3449" x2="357.6981" y2="228.3449">
				<stop  offset="0" style="stop-color:#26A9E0"/>
				<stop  offset="0.9806" style="stop-color:#2B388F"/>
			</linearGradient>
			<path class="st17" d="M347.22,163.21c-2.26-2.28-4.85-4.26-7.66-5.84c-6.78-3.82-15.08-5.52-22.8-4.39
				c-6.81,1-12.59,3.83-17.96,7.95c-0.11-0.13-0.19-0.27-0.3-0.4c-6.74-7.95-17.26-11.6-27.51-10.78
				c-10.15,0.81-19.59,6.01-25.42,14.39c-4.48,6.43-6.33,13.96-6.4,21.66c-17.8-0.94-34.42,9.06-43.75,24.18
				c-4.7,7.61-7.76,16.66-7.95,25.66c-0.22,10.36,3.27,20.82,9.15,29.3c4.46,6.44,10.49,11.94,17.57,15.34
				c-1.55,4.32-2.35,8.47-2.44,13.15c0.49,4.98,1.69,9.18,3.96,13.63c-1.65-4.55-2.31-8.74-2.17-13.59
				c0.64-4.32,1.87-8.03,3.82-11.84c0.3,0.11,0.59,0.25,0.89,0.36c8.76,3,17.57,2.3,26.2-0.62c-6.53,1.34-13.07,1.76-19.6,0.08
				c-7-1.79-13.27-5.62-18.32-10.76c-10.29-10.46-15.44-25.46-13.38-39.98c1.4-9.87,6.74-19.65,13.6-26.77
				c7.5-7.79,17.48-12.85,28.29-13.81c18.3-1.63,37.58,9.36,45.82,25.77c-4.85-13.56-17.08-23.96-30.81-28.15
				c-0.3-4.14-0.14-8.06,0.63-12.23c1.38-4.71,3.27-8.66,6.1-12.66c-3.43,3.75-6.47,7.88-8.03,12.79c-1.19,3.73-1.8,7.39-2.05,11.21
				c-0.75-0.17-1.5-0.31-2.25-0.44c-0.42-7.52,1.08-14.99,5.48-21.27c5.45-7.78,14.38-12.26,23.78-12.84
				c9.26-0.58,18.67,3,24.73,10.13c1.79,2.11,3.13,4.42,4.11,6.85c-0.01,0.01-0.02,0.02-0.04,0.03c0.03,0.04,0.07,0.08,0.1,0.13
				c1.86,4.68,2.32,9.82,1.58,14.99c0.91-4.58,0.8-9.17-0.34-13.5c0.32,0.38,0.64,0.77,0.95,1.15c3.5-3.3,7.37-6.24,12.09-7.55
				c4.49-1.24,8.68-1.52,13.3-1.15c-4.95-1.02-10.09-1.56-15.06-0.23c-4.46,1.19-8.18,3.07-11.89,5.67
				c-0.33-0.95-0.73-1.88-1.18-2.79c0.24,0.28,0.49,0.56,0.73,0.84c4.74-4.48,10.13-7.74,16.69-8.74c7.02-1.06,14.3,0.2,20.52,3.62
				c6.15,3.38,11.34,8.85,13.44,15.65c1.92,6.21,1.19,12.26-0.73,18.35c2.66-6.46,3.94-13.21,1.96-20.08
				c-1.03-3.59-2.81-6.85-5.08-9.73c0.89-2.51,1.87-4.89,3.03-7.29c1.55-2.34,3.16-4.42,5.05-6.51c-2.36,1.69-4.43,3.43-6.5,5.45
				C349.76,159.43,348.47,161.29,347.22,163.21z"/>
			<linearGradient id="SVGID_18_" gradientUnits="userSpaceOnUse" x1="203.9169" y1="323.2656" x2="305.2784" y2="323.2656">
				<stop  offset="0" style="stop-color:#26A9E0"/>
				<stop  offset="0.9806" style="stop-color:#2B388F"/>
			</linearGradient>
			<path class="st18" d="M303.79,347.68c-0.06,0.08-0.1,0.15-0.13,0.23c-0.61,1-1.25,1.95-1.92,2.89c-0.29,0.43-0.6,0.87-0.93,1.28
				c-0.23,0.3-0.45,0.61-0.7,0.91c-0.91,1.14-1.88,2.24-2.9,3.28c-1.05,1.08-2.17,2.1-3.34,3.04c-4.5,3.69-9.75,6.32-15.51,7.49
				c-0.93,0.21-1.85,0.36-2.8,0.47c-10.23,1.24-20.69-2.21-28.6-8.73c-7.66-6.35-12.74-15.8-12.9-25.84
				c-0.02-1.16,0.03-2.29,0.13-3.41c0.17-1.73,0.47-3.45,0.88-5.15c-1.58,0.35-3.19,0.56-4.78,0.62c-6.59,0.26-13.16-1.94-18.38-7.1
				c-8.09-8.03-9.92-19.76-6.03-29.71c1.26-3.22,3.09-6.24,5.52-8.92c-1.73,4.25-3.05,8.42-3.4,12.9c-0.11,1.11-0.15,2.22-0.12,3.37
				c0.15,6.74,2.91,13.36,7.54,18.25c3,3.16,6.85,5.34,11.02,6.45c2.07,0.55,4.24,0.85,6.41,0.85c3.94,0.01,7.62-0.86,11.26-2.02
				c1.48-0.46,2.95-0.98,4.41-1.51c0.02,0,0.02,0,0.03-0.01c0,0-0.02,0-0.01,0.02c-1.1,0.94-2.25,1.81-3.46,2.59
				c-1.08,0.7-2.21,1.33-3.36,1.88c-0.31,0.16-0.63,0.31-0.95,0.45c0.22,0.08,0.38,0.14,0.5,0.18l0.02,0
				c-1.4,4.31-1.94,8.68-1.51,12.96c0.43,4.44,1.89,8.75,4.46,12.75c5.5,8.48,14.87,14.26,24.89,15.48
				c1.55,0.19,3.12,0.27,4.65,0.22c6.43-0.14,12.61-2.21,17.98-5.73c1.31-0.84,2.55-1.78,3.74-2.8c0.65-0.53,1.29-1.09,1.89-1.68
				c0.75-0.7,1.46-1.45,2.16-2.21c0,0,0,0,0.02,0c0.67-0.78,1.33-1.55,1.98-2.34c0.44-0.52,0.85-1.07,1.27-1.6
				c0.23-0.31,0.46-0.6,0.66-0.91c0.26-0.33,1.13-2.05,1.5-2.13C306.04,344.22,303.96,347.37,303.79,347.68z"/>
			<linearGradient id="SVGID_19_" gradientUnits="userSpaceOnUse" x1="246.5213" y1="349.175" x2="284.2568" y2="349.175">
				<stop  offset="0" style="stop-color:#26A9E0"/>
				<stop  offset="0.9806" style="stop-color:#2B388F"/>
			</linearGradient>
			<path class="st19" d="M252.39,346.7c-2.36-2.37-4.07-5.05-5.87-7.84c2.97,16.52,23.27,26.09,37.74,17.3
				c-3.53,0.52-6.87,0.94-10.46,0.67c-3.9-0.1-7.71-1.57-11.27-3.02C258.79,351.88,255.38,349.69,252.39,346.7z"/>
			<linearGradient id="SVGID_20_" gradientUnits="userSpaceOnUse" x1="481.4738" y1="228.4994" x2="571" y2="228.4994">
				<stop  offset="0" style="stop-color:#26A9E0"/>
				<stop  offset="0.9806" style="stop-color:#2B388F"/>
			</linearGradient>
			<path class="st20" d="M570.57,263c-1.59,9.5-8.81,17.56-17.67,21.07c-0.02,0-0.02,0-0.03,0.01c-1.9,0.75-3.79,1.25-5.69,1.48
				c-2.11,0.3-4.2,0.31-6.27,0.03c-0.3-0.02-0.61-0.09-0.93-0.13c-1.41-0.24-2.81-0.61-4.17-1.12c-2.48-0.89-4.86-2.16-7.09-3.83
				c2.66,1.03,5.38,1.77,8.1,2.11c1.92,0.26,3.82,0.3,5.73,0.13c2.42-0.22,4.81-0.83,7.15-1.86c0.32-0.12,0.66-0.27,0.97-0.44
				c2.17-1.05,4.24-2.39,6.07-3.99l0.01-0.02c4.29-3.71,7.46-8.76,8.53-14.33c0.46-2.42,0.59-4.99,0.34-7.51
				c-0.25-2.68-0.92-5.33-2.08-7.72c0-0.02,0-0.02,0-0.02c-1-2.08-2.31-3.96-4.03-5.53c-0.37-0.36-0.76-0.68-1.16-1
				c0,0-1.35-0.97-2.57-1.67c-0.23-0.13-0.46-0.25-0.69-0.36c-6-3.18-13.04-3.48-19.76-3.24c6.65-1.86,13.85-2.63,20.35-0.42
				c-1.35-11.08-11.12-21.96-21.02-25.54c-7.96-2.87-17.68-3.12-25.51,0.33c-7.47,3.27-11.89,9.37-14.35,16.97
				c0.36-4.37,1.37-8.44,3.74-12.19c1.97-3.09,4.65-5.6,7.74-7.51c-1.07-3.64-3.2-6.54-6.18-9.2c3.75,1.89,6.65,4.38,8.73,7.78
				c0.52-0.24,1.02-0.48,1.54-0.69c0.34-0.15,0.66-0.25,1-0.38c-1.8-5.29-5.93-8.98-11.22-11.17c-6.18-2.57-12.63-1.91-18.7,0.49
				c4.21-2.59,8.65-4.05,13.28-4.27c-0.18-0.09-0.39-0.16-0.59-0.24c2.75-5.08,2.63-12.98-0.63-17.79
				c4.29,4.33,5.68,12.12,4.22,18.06c0.75,0.05,1.52,0.14,2.29,0.26l0.02,0c0.76,0.1,1.55,0.26,2.33,0.44
				c7,1.71,12.53,6.15,15.64,12.45c8.01-1.29,16.67,0.01,23.58,3.93c7.57,4.28,13.57,11.59,16.14,19.94l0,0.02
				c0.54,1.68,0.92,3.42,1.15,5.19c0.21,1.52,0.23,3.06,0.14,4.57c0.44,0.25,0.9,0.5,1.35,0.79l0.24,0.14
				c1.76,1.14,3.27,2.47,4.57,4c1.26,1.45,2.3,3.06,3.14,4.79C570.89,250.99,571.54,257.15,570.57,263z"/>
			<linearGradient id="SVGID_21_" gradientUnits="userSpaceOnUse" x1="198.3594" y1="231.9035" x2="239.1465" y2="231.9035">
				<stop  offset="0" style="stop-color:#26A9E0"/>
				<stop  offset="0.9806" style="stop-color:#2B388F"/>
			</linearGradient>
			<path class="st21" d="M204.85,223.11c3.05-7.59,8.09-14.45,14.76-19.25c5.87-4.22,12.48-6.33,19.54-7.43
				c-7.94-0.21-15.37,1.54-22.07,5.93c-7.31,4.78-12.63,12.04-15.82,20.09c-2.95,8.12-3.86,17.08-1.71,25.51
				c1.98,7.76,6.12,14.12,12.05,19.43c-4.42-5.69-8.19-12.17-9.28-19.42C200.62,239.78,201.75,230.84,204.85,223.11z"/>
		</g>
	</g>
	<g>
		<path class="st0" d="M791.59,248.88c-0.45-1.46-1.11-2.83-1.98-4.1c-0.83-1.21-1.85-2.31-3.08-3.27c-0.61-0.46-1.26-0.9-1.96-1.27
			c0.09-1.48-0.04-3.01-0.37-4.54c-1.27-6.14-5.63-12.28-11.49-15.64c-4.62-2.66-11.28-3.81-17.39-2.64
			c-2.83-4.35-6.83-7.83-11.56-10.19c0.08-0.29,0.15-0.58,0.2-0.87l0.01,0c0.56-2.63,0.6-5.4-0.02-8.19
			c-2.37-10.69-13.23-17.37-24.26-14.93c-6,1.33-10.8,5.09-13.57,9.97c-5.52-5.36-11.31-8.2-16.79-7.7
			c-7.14-11.26-20.75-17.42-34.44-14.38c-9.09,2.01-16.41,7.67-20.83,15.11c-0.12,0.18-0.21,0.35-0.31,0.53
			c-5.02-3.92-11.9-5.66-18.88-4.11c-4.76,1.05-8.82,3.47-11.84,6.69c-4.58-7.62-14.36-11.74-24.38-9.52
			c-12.24,2.71-20.19,13.86-17.74,24.91c0.04,0.2,0.11,0.39,0.17,0.59c-1.48-0.15-2.98-0.21-4.48-0.14
			c-6.13,0.3-11.67,2.34-16.36,5.54c-1.26,0.84-2.45,1.78-3.58,2.79c-1.31,1.16-2.54,2.44-3.66,3.78c-1.01,1.2-1.94,2.48-2.8,3.8
			c-2.76,4.27-4.64,9.12-5.5,14.09c-2.08,12.17,4.26,26.57,15.35,33.49c-0.19,0.31-0.37,0.63-0.54,0.95
			c-0.02,0.04-0.05,0.09-0.06,0.13c-0.02,0.03-0.03,0.06-0.04,0.09c-1.61,2.36-2.7,4.85-3.28,7.31
			c-2.72,11.26,4.45,22.49,15.52,23.54c2.23,0.21,4.61,0.02,7.1-0.67c-0.89,2.52-1.3,5-1.31,7.4
			c-0.04,14.05,13.83,25.23,27.96,23.57c4-0.47,8.03-1.98,11.77-4.75c0.85-0.63,1.69-1.33,2.5-2.09c0.93-0.86,1.83-1.82,2.7-2.87
			c0.23-0.27,0.46-0.56,0.69-0.84c0.14,0.06,0.28,0.12,0.42,0.18c0.48-0.67,0.86-1.23,1.29-1.93c4.05,2.2,8.4,4.5,12.68,6.23
			c0.45,0.25,0.7,0.28,1.18,0.48c22.05,8.68,46.84,11.1,71.72,5.59c34.44-7.63,62.37-29.36,79.16-57.4
			c0.97,0.36,1.79,0.57,2.79,0.73c0.13-0.28,0.24-0.55,0.35-0.82c0.28,0.02,0.57,0.03,0.84,0.02c1.65,0.03,3.23-0.2,4.73-0.6
			c1.57-0.42,3.07-1.08,4.45-1.88c4.45-2.59,7.67-6.76,8.83-10.46C792.64,256.82,792.75,252.62,791.59,248.88z M560.58,300.55
			l-1.62-0.57c0.93-0.27,1.87-0.58,2.83-0.99C561.46,299.33,560.58,300.55,560.58,300.55z"/>
		<g>
			<linearGradient id="SVGID_22_" gradientUnits="userSpaceOnUse" x1="587.7509" y1="239.4774" x2="622.5973" y2="239.4774">
				<stop  offset="0" style="stop-color:#26A9E0"/>
				<stop  offset="0.9806" style="stop-color:#2B388F"/>
			</linearGradient>
			<path class="st22" d="M620.58,237.53c-0.93,4.5-3.93,8.68-7.81,11.12c-4.03,2.63-9.12,3.48-13.82,2.6
				c-4.07-0.76-7.67-2.55-11.2-4.65c3.16,3.06,6.91,5.54,11.24,6.58c5.22,1.23,10.6,0.47,15.16-2.4c4.29-2.8,7.45-7.39,8.23-12.49
				c0.72-4.7-0.45-9.05-2.86-13.08C620.86,229.22,621.57,233.34,620.58,237.53z"/>
			<linearGradient id="SVGID_23_" gradientUnits="userSpaceOnUse" x1="578.9794" y1="294.5598" x2="589.8766" y2="294.5598">
				<stop  offset="0" style="stop-color:#26A9E0"/>
				<stop  offset="0.9806" style="stop-color:#2B388F"/>
			</linearGradient>
			<path class="st23" d="M585.19,302.55c-1.31,2.24-3.59,3.59-5.68,4.99c2.99-0.63,6.59-2.12,8.14-4.99
				c1.56-2.39,2.53-5.45,2.13-8.33c-0.85-6.2-4.71-10.94-10.81-12.64c2.41,1.85,4.74,3.65,6.23,6.39c1.06,1.95,1.77,3.91,2.01,6.12
				C587.53,296.89,587,300.28,585.19,302.55z"/>
			<linearGradient id="SVGID_24_" gradientUnits="userSpaceOnUse" x1="522.4623" y1="233.866" x2="643.0908" y2="233.866">
				<stop  offset="0" style="stop-color:#26A9E0"/>
				<stop  offset="0.9806" style="stop-color:#2B388F"/>
			</linearGradient>
			<path class="st24" d="M635.67,187.71c-1.6-1.62-3.44-3.02-5.43-4.14c-4.8-2.71-10.69-3.91-16.16-3.11
				c-4.82,0.71-8.92,2.71-12.73,5.63c-0.08-0.09-0.14-0.19-0.21-0.28c-4.77-5.63-12.23-8.22-19.49-7.64
				c-7.19,0.57-13.88,4.26-18.01,10.2c-3.17,4.55-4.48,9.89-4.54,15.35c-12.62-0.67-24.39,6.42-31,17.14
				c-3.33,5.39-5.5,11.81-5.63,18.18c-0.15,7.34,2.32,14.75,6.48,20.76c3.16,4.56,7.43,8.46,12.45,10.87c-1.1,3.06-1.67,6-1.73,9.32
				c0.35,3.53,1.19,6.5,2.81,9.66c-1.17-3.23-1.64-6.19-1.54-9.63c0.45-3.06,1.32-5.69,2.71-8.39c0.21,0.08,0.42,0.18,0.63,0.25
				c6.2,2.12,12.45,1.63,18.57-0.44c-4.63,0.95-9.26,1.25-13.89,0.06c-4.96-1.27-9.4-3.98-12.98-7.62
				c-7.29-7.41-10.94-18.04-9.48-28.33c0.99-6.99,4.78-13.92,9.64-18.97c5.32-5.52,12.38-9.11,20.05-9.78
				c12.97-1.15,26.63,6.63,32.47,18.26c-3.44-9.61-12.1-16.98-21.83-19.95c-0.21-2.93-0.1-5.71,0.45-8.67
				c0.98-3.34,2.32-6.14,4.32-8.97c-2.43,2.66-4.58,5.58-5.69,9.06c-0.84,2.64-1.27,5.24-1.45,7.94c-0.53-0.12-1.06-0.22-1.59-0.31
				c-0.3-5.33,0.76-10.62,3.88-15.07c3.86-5.51,10.19-8.69,16.85-9.1c6.56-0.41,13.23,2.12,17.52,7.18
				c1.27,1.49,2.22,3.13,2.92,4.86c-0.01,0.01-0.02,0.01-0.03,0.02c0.02,0.03,0.05,0.06,0.07,0.09c1.32,3.32,1.64,6.96,1.12,10.62
				c0.64-3.25,0.57-6.5-0.24-9.56c0.23,0.27,0.45,0.54,0.68,0.81c2.48-2.34,5.22-4.42,8.57-5.35c3.18-0.88,6.15-1.07,9.42-0.82
				c-3.51-0.72-7.15-1.1-10.67-0.16c-3.16,0.84-5.8,2.18-8.43,4.02c-0.24-0.67-0.52-1.33-0.83-1.97c0.17,0.2,0.35,0.4,0.52,0.6
				c3.36-3.17,7.18-5.49,11.83-6.19c4.97-0.75,10.13,0.14,14.54,2.57c4.36,2.39,8.03,6.27,9.52,11.09c1.36,4.4,0.85,8.68-0.52,13
				c1.88-4.57,2.79-9.36,1.39-14.23c-0.73-2.54-1.99-4.85-3.6-6.9c0.63-1.78,1.32-3.46,2.15-5.16c1.1-1.66,2.24-3.13,3.58-4.61
				c-1.67,1.2-3.14,2.43-4.61,3.86C637.46,185.03,636.55,186.35,635.67,187.71z"/>
			<linearGradient id="SVGID_25_" gradientUnits="userSpaceOnUse" x1="534.1219" y1="301.1264" x2="605.9464" y2="301.1264">
				<stop  offset="0" style="stop-color:#26A9E0"/>
				<stop  offset="0.9806" style="stop-color:#2B388F"/>
			</linearGradient>
			<path class="st25" d="M604.89,318.43c-0.04,0.06-0.07,0.11-0.09,0.16c-0.43,0.71-0.88,1.38-1.36,2.05
				c-0.2,0.31-0.42,0.62-0.66,0.91c-0.16,0.21-0.32,0.44-0.5,0.64c-0.64,0.81-1.33,1.59-2.06,2.32c-0.74,0.76-1.53,1.49-2.37,2.15
				c-3.19,2.61-6.91,4.48-10.99,5.3c-0.66,0.15-1.31,0.25-1.99,0.33c-7.25,0.88-14.66-1.56-20.27-6.19
				c-5.43-4.5-9.03-11.2-9.14-18.31c-0.01-0.82,0.02-1.62,0.09-2.42c0.12-1.23,0.33-2.45,0.63-3.65c-1.12,0.25-2.26,0.4-3.38,0.44
				c-4.67,0.19-9.33-1.37-13.02-5.03c-5.73-5.69-7.03-14-4.27-21.05c0.89-2.28,2.19-4.42,3.91-6.32c-1.22,3.01-2.16,5.97-2.41,9.14
				c-0.08,0.78-0.11,1.58-0.08,2.39c0.1,4.78,2.06,9.47,5.34,12.93c2.13,2.24,4.85,3.78,7.81,4.57c1.47,0.39,3,0.6,4.54,0.6
				c2.79,0.01,5.4-0.61,7.98-1.43c1.05-0.32,2.09-0.7,3.13-1.07c0.01,0,0.01,0,0.02-0.01c0,0-0.01,0-0.01,0.01
				c-0.78,0.67-1.59,1.28-2.45,1.83c-0.76,0.5-1.57,0.94-2.38,1.34c-0.22,0.11-0.45,0.22-0.67,0.32c0.15,0.06,0.27,0.1,0.35,0.13
				l0.01,0c-0.99,3.05-1.38,6.15-1.07,9.18c0.31,3.14,1.34,6.2,3.16,9.03c3.9,6.01,10.53,10.1,17.64,10.97
				c1.1,0.13,2.21,0.19,3.3,0.16c4.56-0.1,8.94-1.56,12.74-4.06c0.93-0.6,1.81-1.26,2.65-1.98c0.46-0.38,0.91-0.77,1.34-1.19
				c0.53-0.5,1.04-1.03,1.53-1.56c0,0,0,0,0.01,0c0.48-0.55,0.94-1.1,1.41-1.66c0.31-0.37,0.6-0.76,0.9-1.13
				c0.16-0.22,0.32-0.42,0.47-0.64c0.18-0.23,0.8-1.45,1.06-1.51C606.48,315.97,605.01,318.21,604.89,318.43z"/>
			<linearGradient id="SVGID_26_" gradientUnits="userSpaceOnUse" x1="564.3113" y1="319.4857" x2="591.0505" y2="319.4857">
				<stop  offset="0" style="stop-color:#26A9E0"/>
				<stop  offset="0.9806" style="stop-color:#2B388F"/>
			</linearGradient>
			<path class="st26" d="M568.47,317.73c-1.67-1.68-2.88-3.58-4.16-5.55c2.11,11.7,16.49,18.49,26.74,12.26
				c-2.5,0.37-4.87,0.66-7.41,0.47c-2.76-0.07-5.47-1.12-7.99-2.14C573,321.4,570.59,319.85,568.47,317.73z"/>
			<linearGradient id="SVGID_27_" gradientUnits="userSpaceOnUse" x1="730.7977" y1="233.9755" x2="794.2357" y2="233.9755">
				<stop  offset="0" style="stop-color:#26A9E0"/>
				<stop  offset="0.9806" style="stop-color:#2B388F"/>
			</linearGradient>
			<path class="st27" d="M793.93,258.42c-1.13,6.73-6.24,12.44-12.52,14.93c-0.01,0-0.01,0-0.02,0c-1.34,0.53-2.69,0.88-4.03,1.05
				c-1.49,0.21-2.98,0.22-4.45,0.02c-0.21-0.02-0.43-0.06-0.66-0.09c-1-0.17-1.99-0.43-2.95-0.79c-1.76-0.63-3.44-1.53-5.02-2.71
				c1.88,0.73,3.81,1.26,5.74,1.49c1.36,0.18,2.71,0.21,4.06,0.09c1.71-0.16,3.41-0.59,5.07-1.32c0.23-0.09,0.47-0.19,0.69-0.31
				c1.54-0.75,3-1.69,4.3-2.83l0.01-0.01c3.04-2.63,5.29-6.21,6.04-10.16c0.33-1.71,0.42-3.53,0.24-5.32
				c-0.17-1.9-0.65-3.78-1.47-5.47c0-0.01,0-0.01,0-0.01c-0.71-1.47-1.64-2.81-2.85-3.92c-0.26-0.25-0.54-0.48-0.82-0.71
				c0,0-0.96-0.68-1.82-1.18c-0.17-0.09-0.33-0.18-0.49-0.26c-4.26-2.25-9.24-2.47-14-2.3c4.71-1.32,9.81-1.86,14.42-0.3
				c-0.96-7.85-7.88-15.56-14.9-18.1c-5.64-2.04-12.53-2.21-18.07,0.23c-5.29,2.32-8.43,6.64-10.17,12.02
				c0.25-3.1,0.97-5.98,2.65-8.64c1.39-2.19,3.3-3.97,5.49-5.32c-0.75-2.58-2.27-4.64-4.38-6.52c2.66,1.34,4.72,3.1,6.19,5.52
				c0.37-0.17,0.72-0.34,1.09-0.49c0.24-0.1,0.47-0.18,0.71-0.27c-1.27-3.75-4.2-6.36-7.95-7.92c-4.38-1.82-8.95-1.36-13.25,0.34
				c2.98-1.84,6.13-2.87,9.41-3.03c-0.13-0.06-0.27-0.11-0.42-0.17c1.95-3.6,1.86-9.2-0.44-12.6c3.04,3.07,4.03,8.59,2.99,12.8
				c0.53,0.03,1.08,0.1,1.62,0.19l0.01,0c0.54,0.07,1.1,0.19,1.65,0.31c4.96,1.21,8.88,4.36,11.08,8.82
				c5.68-0.92,11.82,0,16.71,2.78c5.37,3.04,9.62,8.21,11.44,14.13l0,0.01c0.38,1.19,0.65,2.42,0.82,3.68
				c0.15,1.08,0.17,2.17,0.1,3.24c0.32,0.18,0.64,0.35,0.96,0.56l0.17,0.1c1.25,0.81,2.32,1.75,3.24,2.83
				c0.89,1.03,1.63,2.17,2.22,3.39C794.16,249.91,794.62,254.28,793.93,258.42z"/>
			<linearGradient id="SVGID_28_" gradientUnits="userSpaceOnUse" x1="530.184" y1="236.3876" x2="559.0855" y2="236.3876">
				<stop  offset="0" style="stop-color:#26A9E0"/>
				<stop  offset="0.9806" style="stop-color:#2B388F"/>
			</linearGradient>
			<path class="st28" d="M534.78,230.16c2.16-5.38,5.73-10.24,10.46-13.64c4.16-2.99,8.84-4.48,13.85-5.27
				c-5.62-0.15-10.89,1.09-15.64,4.2c-5.18,3.39-8.95,8.53-11.21,14.24c-2.09,5.76-2.74,12.1-1.21,18.08
				c1.41,5.5,4.34,10.01,8.54,13.77c-3.13-4.03-5.8-8.62-6.58-13.76C531.79,241.97,532.59,235.63,534.78,230.16z"/>
		</g>
	</g>
	<g>
		<path class="st0" d="M712.63,250.32c2.62,3.62,7.66,7.01,13.46,8.23c1.79,0.38,3.67,0.55,5.55,0.44c1.79-0.1,3.6-0.43,5.39-1.06
			c0.3-0.09,0.61-0.21,0.91-0.33c0.22,0.26,0.44,0.51,0.68,0.77c1.04-0.55,1.86-1.07,2.79-1.82c28.56,24.56,66.99,38.17,107.43,34
			c29.22-3.02,55.45-14.67,76.4-32.18c0.45-0.39,0.7-0.52,1.11-0.95c4.05-3.44,7.97-7.55,11.6-11.42c0.73,0.62,1.35,1.09,2.11,1.65
			c0.13-0.12,0.25-0.23,0.39-0.35c0.35,0.23,0.71,0.46,1.06,0.67c1.34,0.83,2.67,1.55,4,2.15c1.16,0.54,2.33,1,3.49,1.38
			c5.1,1.67,10.04,1.85,14.59,0.92c16.06-3.31,27.17-20.58,22.02-35.93c-0.88-2.62-2.23-5.18-4.12-7.61
			c2.98-0.14,5.65-0.81,8.01-1.84c11.72-5.18,15.48-20.07,8.41-31.39c-1.54-2.48-3.62-4.8-6.25-6.8c-0.03-0.03-0.05-0.05-0.08-0.08
			c-0.03-0.04-0.08-0.08-0.12-0.12c-0.31-0.29-0.62-0.58-0.94-0.85c9.61-11.6,11.31-29.65,4.61-42.21
			c-2.74-5.13-6.56-9.74-11.13-13.41c-1.42-1.14-2.9-2.19-4.44-3.14c-1.72-1.06-3.53-2.01-5.38-2.8c-1.61-0.69-3.25-1.29-4.93-1.75
			c-6.29-1.8-13.1-2.01-19.91-0.11c-1.66,0.47-3.28,1.08-4.85,1.78c-0.01-0.24,0-0.47-0.03-0.71c-1.34-12.98-14.08-22.28-28.46-20.8
			c-11.76,1.21-20.96,9.27-23.2,19.27c-4.48-2.43-9.8-3.59-15.38-3.01c-8.2,0.85-15.1,5.25-19.15,11.36
			c-0.18-0.16-0.34-0.3-0.53-0.46c-7.53-6.54-17.6-10.06-28.27-8.95c-16.08,1.66-28.73,13.33-32.44,28.24
			c-6.18,1.45-11.48,6.66-15.57,14.53c-4.8-4.33-11.41-6.7-18.46-5.97c-12.95,1.34-22.4,12.59-21.11,25.15
			c0.34,3.27,1.39,6.29,2.96,8.96l0.02,0c0.16,0.29,0.34,0.58,0.53,0.87c-4.31,4.29-7.42,9.56-8.93,15.35
			c-7.11,0.94-13.98,4.63-18.06,9.21c-5.18,5.8-7.72,14.1-6.88,21.27c0.2,1.79,0.61,3.5,1.25,5.09c-0.64,0.67-1.18,1.38-1.69,2.11
			c-1,1.49-1.72,3.07-2.18,4.69c-0.49,1.7-0.71,3.45-0.67,5.21C708.32,242.08,709.96,246.63,712.63,250.32z M977.74,208.84
			c1.2,0.1,2.34,0.1,3.46,0.05l-1.57,1.21C979.63,210.11,978.23,209.1,977.74,208.84z"/>
		<g>
			<linearGradient id="SVGID_29_" gradientUnits="userSpaceOnUse" x1="887.1269" y1="162.4739" x2="930.3086" y2="162.4739">
				<stop  offset="0" style="stop-color:#26A9E0"/>
				<stop  offset="0.9806" style="stop-color:#2B388F"/>
			</linearGradient>
			<path class="st29" d="M891.11,163c2.66,4.58,7.45,8.07,12.58,9.32c5.36,1.41,11.24,0.5,16.06-2.18
				c4.18-2.32,7.46-5.57,10.56-9.15c-2.35,4.5-5.54,8.58-9.9,11.28c-5.26,3.24-11.42,4.36-17.45,2.89
				c-5.71-1.51-10.83-5.37-13.54-10.67c-2.5-4.88-2.8-10.06-1.63-15.34C887.79,154.02,888.5,158.78,891.11,163z"/>
			<linearGradient id="SVGID_30_" gradientUnits="userSpaceOnUse" x1="945.0458" y1="210.4188" x2="961.4653" y2="210.4188">
				<stop  offset="0" style="stop-color:#26A9E0"/>
				<stop  offset="0.9806" style="stop-color:#2B388F"/>
			</linearGradient>
			<path class="st30" d="M953.44,221.24c2.25,1.98,5.24,2.63,8.03,3.4c-3.5,0.4-7.98,0.08-10.72-2.5c-2.57-2.04-4.75-5.04-5.36-8.33
				c-1.32-7.09,1.17-13.68,7.23-17.75c-1.97,2.89-3.86,5.72-4.49,9.25c-0.45,2.52-0.51,4.92,0.02,7.42
				C948.82,215.91,950.65,219.42,953.44,221.24z"/>
			<linearGradient id="SVGID_31_" gradientUnits="userSpaceOnUse" x1="845.5418" y1="137.3594" x2="1001.1347" y2="137.3594">
				<stop  offset="0" style="stop-color:#26A9E0"/>
				<stop  offset="0.9806" style="stop-color:#2B388F"/>
			</linearGradient>
			<path class="st31" d="M856.51,114.01c1.16-2.35,2.66-4.55,4.43-6.5c4.27-4.71,10.26-8.16,16.54-9.27
				c5.53-0.98,10.74-0.28,15.97,1.54c0.05-0.13,0.08-0.26,0.13-0.39c3.17-7.89,10.39-13.43,18.54-15.44
				c8.07-1.99,16.73-0.38,23.41,4.61c5.12,3.83,8.5,9.19,10.54,15.14c13.55-5.32,29-1.84,40.13,7.47
				c5.6,4.69,10.3,10.91,12.77,17.83c2.84,7.97,2.83,16.97,0.46,25.06c-1.8,6.14-5.05,11.95-9.67,16.41c2.31,2.95,4,5.96,5.28,9.56
				c0.9,3.99,1.06,7.55,0.44,11.58c0.1-3.95-0.46-7.37-1.82-11.09c-1.61-3.18-3.51-5.74-6.01-8.19c-0.2,0.17-0.39,0.35-0.6,0.51
				c-6.01,4.58-13.02,6.31-20.46,6.27c5.4-0.65,10.58-2,15.21-4.99c4.96-3.19,8.83-7.77,11.42-13.05
				c5.28-10.75,5.41-23.7,0.07-34.43c-3.63-7.29-10.29-13.49-17.43-17.24c-7.82-4.11-16.85-5.46-25.48-3.41
				c-14.6,3.45-26.71,16.93-28.87,31.77c0.26-11.76,7.06-22.97,16.62-29.75c-0.83-3.29-1.97-6.28-3.64-9.32
				c-2.28-3.29-4.77-5.87-7.99-8.24c3.63,2.02,7.04,4.44,9.52,7.85c1.88,2.58,3.3,5.26,4.47,8.16c0.54-0.32,1.08-0.62,1.63-0.92
				c-1.61-5.94-4.69-11.34-9.72-15.07c-6.23-4.63-14.3-5.8-21.74-3.83c-7.32,1.94-13.7,7.13-16.55,14.21
				c-0.85,2.1-1.29,4.23-1.42,6.37c0.01,0,0.02,0.01,0.04,0.01c-0.02,0.04-0.03,0.08-0.05,0.12c-0.23,4.11,0.73,8.21,2.64,12.02
				c-1.88-3.32-2.98-6.9-3.21-10.54c-0.15,0.38-0.3,0.76-0.44,1.14c-3.56-1.65-7.32-2.94-11.31-2.74c-3.8,0.19-7.11,1.06-10.6,2.53
				c3.58-2.07,7.41-3.8,11.61-4.06c3.76-0.22,7.13,0.27,10.67,1.33c0.02-0.82,0.08-1.64,0.19-2.46c-0.12,0.28-0.23,0.56-0.35,0.84
				c-4.83-2.25-9.84-3.39-15.18-2.47c-5.71,0.98-11.03,3.84-14.97,8.09c-3.89,4.2-6.5,9.78-6.38,15.59
				c0.11,5.31,2.23,9.8,5.29,14.03c-3.72-4.32-6.46-9.22-6.69-15.06c-0.12-3.05,0.42-6.03,1.43-8.85c-1.34-1.72-2.7-3.31-4.23-4.87
				c-1.81-1.42-3.59-2.61-5.59-3.74c2.26,0.7,4.31,1.52,6.44,2.55C853.57,111.73,855.05,112.84,856.51,114.01z"/>
			<linearGradient id="SVGID_32_" gradientUnits="userSpaceOnUse" x1="935.719" y1="211.4974" x2="1003.5077" y2="211.4974">
				<stop  offset="0" style="stop-color:#26A9E0"/>
				<stop  offset="0.9806" style="stop-color:#2B388F"/>
			</linearGradient>
			<path class="st32" d="M937.67,245.77c0.06,0.05,0.11,0.09,0.16,0.15c0.73,0.62,1.47,1.19,2.23,1.74
				c0.33,0.26,0.69,0.52,1.05,0.75c0.25,0.18,0.51,0.36,0.77,0.52c1,0.65,2.03,1.25,3.09,1.79c1.09,0.56,2.22,1.07,3.37,1.49
				c4.44,1.7,9.19,2.39,13.95,1.81c0.77-0.08,1.53-0.2,2.29-0.36c8.25-1.67,15.47-7.04,19.91-14.13c4.3-6.89,5.8-15.53,3.34-23.34
				c-0.29-0.9-0.61-1.77-0.98-2.61c-0.58-1.3-1.25-2.55-2.01-3.76c1.31-0.14,2.62-0.39,3.86-0.75c5.17-1.49,9.7-4.89,12.41-10.23
				c4.2-8.31,2.6-17.87-2.98-24.57c-1.8-2.17-4-4.04-6.57-5.49c2.43,2.85,4.53,5.74,5.96,9.12c0.37,0.83,0.69,1.68,0.96,2.58
				c1.62,5.26,1.19,11.1-1.14,16.08c-1.51,3.22-3.93,5.9-6.88,7.83c-1.46,0.96-3.06,1.75-4.75,2.31c-3.05,1.02-6.12,1.3-9.24,1.34
				c-1.27,0.03-2.54,0-3.81-0.03c-0.01,0-0.01,0-0.03,0c0,0,0.02,0,0.02,0.01c1.09,0.45,2.21,0.82,3.34,1.12
				c1.02,0.26,2.05,0.46,3.09,0.6c0.28,0.04,0.57,0.07,0.85,0.1c-0.15,0.12-0.26,0.2-0.34,0.27l-0.02,0
				c2.2,2.97,3.74,6.22,4.51,9.65c0.81,3.55,0.79,7.27-0.18,11.03c-2.08,7.99-7.85,14.88-15.3,18.41c-1.15,0.55-2.34,1.01-3.55,1.37
				c-5.02,1.55-10.34,1.54-15.41,0.19c-1.23-0.32-2.44-0.72-3.62-1.21c-0.64-0.24-1.28-0.51-1.9-0.82
				c-0.76-0.35-1.51-0.75-2.24-1.15c0,0,0,0-0.01,0c-0.72-0.43-1.43-0.86-2.14-1.3c-0.47-0.29-0.93-0.61-1.39-0.91
				c-0.25-0.18-0.51-0.35-0.75-0.53c-0.28-0.19-1.4-1.3-1.71-1.27C935.04,243.66,937.46,245.57,937.67,245.77z"/>
			<linearGradient id="SVGID_33_" gradientUnits="userSpaceOnUse" x1="954.9888" y1="235.9787" x2="979.9666" y2="235.9787">
				<stop  offset="0" style="stop-color:#26A9E0"/>
				<stop  offset="0.9806" style="stop-color:#2B388F"/>
			</linearGradient>
			<path class="st33" d="M977.24,231.77c1.22-2.44,1.85-4.96,2.53-7.58c1.95,13.56-11.31,26.21-24.79,23.12
				c2.87-0.5,5.57-1.04,8.28-2.18c3-1.08,5.57-3.21,7.96-5.24C973.62,237.43,975.7,234.86,977.24,231.77z"/>
			<linearGradient id="SVGID_34_" gradientUnits="userSpaceOnUse" x1="706.2482" y1="209.2744" x2="760.2789" y2="209.2744">
				<stop  offset="0" style="stop-color:#26A9E0"/>
				<stop  offset="0.9806" style="stop-color:#2B388F"/>
			</linearGradient>
			<path class="st34" d="M709.13,248.85c3.68,6.95,11.35,11.34,19.12,11.78c0.01,0,0.01,0,0.03,0c1.66,0.09,3.26-0.01,4.79-0.32
				c1.71-0.31,3.34-0.85,4.87-1.59c0.23-0.1,0.45-0.22,0.68-0.34c1.04-0.55,2.02-1.2,2.94-1.94c1.69-1.33,3.21-2.93,4.5-4.79
				c-1.79,1.49-3.71,2.76-5.74,3.72c-1.42,0.69-2.88,1.21-4.41,1.58c-1.93,0.45-3.94,0.6-6.02,0.4c-0.28-0.01-0.58-0.04-0.87-0.09
				c-1.96-0.26-3.9-0.76-5.73-1.53l-0.02-0.01c-4.28-1.77-8.04-4.86-10.3-8.91c-0.98-1.75-1.74-3.71-2.2-5.73
				c-0.5-2.14-0.66-4.37-0.38-6.52c0-0.02,0-0.02,0-0.02c0.24-1.87,0.77-3.66,1.69-5.32c0.2-0.37,0.41-0.72,0.64-1.07
				c0,0,0.8-1.1,1.56-1.96c0.15-0.16,0.29-0.31,0.44-0.46c3.83-4.01,9.21-6.06,14.48-7.6c-5.64,0.27-11.41,1.53-15.88,4.91
				c-1.81-8.93,2.96-19.88,9.71-25.21c5.43-4.28,12.9-6.97,19.85-6.32c6.63,0.61,11.63,4.2,15.49,9.45c-1.4-3.3-3.23-6.19-6.04-8.48
				c-2.32-1.89-5.04-3.14-7.93-3.83c-0.11-3.1,0.79-5.9,2.42-8.72c-2.42,2.43-4.03,5.11-4.76,8.28c-0.47-0.05-0.91-0.11-1.37-0.14
				c-0.3-0.03-0.58-0.03-0.87-0.04c0.03-4.56,2.28-8.48,5.81-11.55c4.13-3.58,9.29-4.73,14.62-4.44c-3.93-0.92-7.75-0.91-11.39,0.11
				c0.12-0.11,0.26-0.22,0.39-0.34c-3.44-3.23-5.38-9.39-4.09-13.94c-2.21,4.46-1.28,10.86,1.38,15.08c-0.57,0.23-1.14,0.5-1.7,0.79
				l-0.02,0c-0.56,0.28-1.13,0.6-1.69,0.94c-4.99,3.13-8.13,7.99-8.91,13.67c-6.54,1.06-12.92,4.3-17.26,9.12
				c-4.77,5.27-7.53,12.47-7.37,19.61l0,0.01c0.02,1.44,0.17,2.89,0.45,4.32c0.23,1.23,0.61,2.43,1.06,3.58
				c-0.28,0.31-0.57,0.62-0.84,0.96l-0.15,0.17c-1.07,1.34-1.9,2.76-2.51,4.27c-0.6,1.45-0.99,2.96-1.2,4.52
				C705.79,239.63,706.88,244.57,709.13,248.85z"/>
			<linearGradient id="SVGID_35_" gradientUnits="userSpaceOnUse" x1="948.8101" y1="134.8295" x2="992.8491" y2="134.8295">
				<stop  offset="0" style="stop-color:#26A9E0"/>
				<stop  offset="0.9806" style="stop-color:#2B388F"/>
			</linearGradient>
			<path class="st35" d="M982.26,123.76c-4.32-5.1-9.99-9.12-16.39-11.11c-5.63-1.76-11.3-1.69-17.06-0.73
				c6.1-2.2,12.31-2.77,18.63-1.09c6.89,1.82,12.88,6.08,17.43,11.5c4.38,5.54,7.39,12.24,7.89,19.33
				c0.46,6.52-1.11,12.52-4.33,18.16c1.96-5.55,3.21-11.54,2.19-17.44C989.82,135.58,986.65,128.95,982.26,123.76z"/>
		</g>
	</g>
	<g>
		<circle class="st0" cx="827" cy="56.87" r="24.87"/>
		<linearGradient id="SVGID_36_" gradientUnits="userSpaceOnUse" x1="805.294" y1="49.3433" x2="835.1594" y2="49.3433">
			<stop  offset="0" style="stop-color:#26A9E0"/>
			<stop  offset="0.9806" style="stop-color:#2B388F"/>
		</linearGradient>
		<path class="st36" d="M813.48,41.93c3.06-2.86,6.88-4.94,11.01-5.72c3.63-0.68,7.15-0.23,10.67,0.79
			c-3.63-1.82-7.46-2.62-11.51-2.04c-4.42,0.63-8.46,2.84-11.69,5.88c-3.13,3.13-5.49,7.08-6.32,11.45
			c-0.76,4.03-0.22,7.87,1.37,11.61c-0.82-3.59-1.16-7.42-0.09-11.01C807.91,48.74,810.37,44.84,813.48,41.93z"/>
	</g>
	<g>
		<circle class="st0" cx="783" cy="99" r="10"/>
		<linearGradient id="SVGID_37_" gradientUnits="userSpaceOnUse" x1="774.2716" y1="95.9741" x2="786.2811" y2="95.9741">
			<stop  offset="0" style="stop-color:#26A9E0"/>
			<stop  offset="0.9806" style="stop-color:#2B388F"/>
		</linearGradient>
		<path class="st37" d="M777.56,92.99c1.23-1.15,2.77-1.99,4.43-2.3c1.46-0.27,2.88-0.09,4.29,0.32c-1.46-0.73-3-1.05-4.63-0.82
			c-1.78,0.25-3.4,1.14-4.7,2.37c-1.26,1.26-2.21,2.85-2.54,4.61c-0.31,1.62-0.09,3.17,0.55,4.67c-0.33-1.45-0.47-2.98-0.04-4.43
			C775.32,95.73,776.31,94.16,777.56,92.99z"/>
	</g>
	<g>
		<circle class="st0" cx="593.87" cy="98.72" r="15.13"/>
		<linearGradient id="SVGID_38_" gradientUnits="userSpaceOnUse" x1="580.6564" y1="94.1445" x2="598.8316" y2="94.1445">
			<stop  offset="0" style="stop-color:#26A9E0"/>
			<stop  offset="0.9806" style="stop-color:#2B388F"/>
		</linearGradient>
		<path class="st38" d="M585.64,89.63c1.86-1.74,4.19-3.01,6.7-3.48c2.21-0.41,4.35-0.14,6.49,0.48c-2.21-1.11-4.54-1.59-7.01-1.24
			c-2.69,0.38-5.15,1.73-7.11,3.58c-1.9,1.9-3.34,4.31-3.85,6.97c-0.46,2.45-0.14,4.79,0.83,7.07c-0.5-2.19-0.71-4.51-0.06-6.7
			C582.25,93.78,583.75,91.4,585.64,89.63z"/>
	</g>
	<g>
		<circle class="st0" cx="370.56" cy="75.47" r="19.44"/>
		<linearGradient id="SVGID_39_" gradientUnits="userSpaceOnUse" x1="353.5974" y1="69.5839" x2="376.9404" y2="69.5839">
			<stop  offset="0" style="stop-color:#26A9E0"/>
			<stop  offset="0.9806" style="stop-color:#2B388F"/>
		</linearGradient>
		<path class="st39" d="M360,63.79c2.39-2.23,5.38-3.86,8.61-4.47c2.84-0.53,5.59-0.18,8.34,0.62c-2.84-1.42-5.83-2.05-9-1.59
			c-3.46,0.49-6.61,2.22-9.14,4.6c-2.44,2.44-4.29,5.53-4.94,8.95c-0.6,3.15-0.17,6.15,1.07,9.08c-0.64-2.81-0.91-5.8-0.07-8.61
			C355.64,69.11,357.57,66.06,360,63.79z"/>
	</g>
	<g>
		<circle class="st0" cx="307.12" cy="134.44" r="6.88"/>
		<linearGradient id="SVGID_40_" gradientUnits="userSpaceOnUse" x1="301.1191" y1="132.3627" x2="309.3789" y2="132.3627">
			<stop  offset="0" style="stop-color:#26A9E0"/>
			<stop  offset="0.9806" style="stop-color:#2B388F"/>
		</linearGradient>
		<path class="st40" d="M303.38,130.31c0.85-0.79,1.9-1.37,3.05-1.58c1-0.19,1.98-0.06,2.95,0.22c-1-0.5-2.06-0.72-3.18-0.56
			c-1.22,0.17-2.34,0.79-3.23,1.63c-0.86,0.86-1.52,1.96-1.75,3.17c-0.21,1.11-0.06,2.18,0.38,3.21c-0.23-0.99-0.32-2.05-0.03-3.05
			C301.84,132.19,302.52,131.12,303.38,130.31z"/>
	</g>
	<g>
		<circle class="st0" cx="83.42" cy="133.07" r="20.58"/>
		<linearGradient id="SVGID_41_" gradientUnits="userSpaceOnUse" x1="65.4506" y1="126.8429" x2="90.1702" y2="126.8429">
			<stop  offset="0" style="stop-color:#26A9E0"/>
			<stop  offset="0.9806" style="stop-color:#2B388F"/>
		</linearGradient>
		<path class="st41" d="M72.23,120.71c2.53-2.37,5.7-4.09,9.11-4.74c3.01-0.56,5.92-0.19,8.83,0.65c-3.01-1.5-6.17-2.17-9.53-1.69
			c-3.66,0.52-7,2.35-9.67,4.87c-2.59,2.59-4.55,5.86-5.23,9.48c-0.63,3.33-0.18,6.52,1.14,9.61c-0.67-2.98-0.96-6.14-0.08-9.11
			C67.62,126.34,69.65,123.12,72.23,120.71z"/>
	</g>
	<g>
		<circle class="st0" cx="34.54" cy="152.41" r="10.46"/>
		<linearGradient id="SVGID_42_" gradientUnits="userSpaceOnUse" x1="25.4117" y1="149.2424" x2="37.9726" y2="149.2424">
			<stop  offset="0" style="stop-color:#26A9E0"/>
			<stop  offset="0.9806" style="stop-color:#2B388F"/>
		</linearGradient>
		<path class="st42" d="M28.85,146.12c1.29-1.2,2.89-2.08,4.63-2.41c1.53-0.29,3.01-0.1,4.49,0.33c-1.53-0.76-3.14-1.1-4.84-0.86
			c-1.86,0.27-3.56,1.2-4.92,2.47c-1.32,1.31-2.31,2.98-2.66,4.82c-0.32,1.69-0.09,3.31,0.58,4.88c-0.34-1.51-0.49-3.12-0.04-4.63
			C26.51,148.99,27.55,147.35,28.85,146.12z"/>
	</g>
	<path class="st0" d="M-10,264.61c0,0,12,16.39,38,9.39s76-14,76-14l75,21l30.49-3.38c0,0,12.51,13.38,42.51,3.38s84,2,84,2l196-13
		h7l0.48-0.36c0,0,9.62,6.73,23.37,1.79s162.8-6.89,162.8-6.89l117.19-32.64l93.07,11.64c0,0,18.39,21.52,40.29,4.92v485.34H-19.54
		L-10,264.61z"/>
</g>
</svg>
