<?xml version="1.0" encoding="utf-8"?>
<!-- Generator: Adobe Illustrator 24.2.1, SVG Export Plug-In . SVG Version: 6.00 Build 0)  -->
<svg version="1.1" id="Layer_1" xmlns="http://www.w3.org/2000/svg" xmlns:xlink="http://www.w3.org/1999/xlink" x="0px" y="0px"
	 viewBox="0 0 2000 2000" style="enable-background:new 0 0 2000 2000;" xml:space="preserve">
<style type="text/css">
	.st0{fill:#424143;}
	.st1{fill:#FFFFFF;}
	.st2{fill:url(#SVGID_1_);}
	.st3{fill:url(#SVGID_2_);}
	.st4{fill:url(#SVGID_3_);}
	.st5{fill:url(#SVGID_4_);}
	.st6{fill:url(#SVGID_5_);}
	.st7{fill:url(#SVGID_6_);}
	.st8{fill:url(#SVGID_7_);}
	.st9{fill:url(#SVGID_8_);}
	.st10{fill:url(#SVGID_9_);}
	.st11{fill:url(#SVGID_10_);}
	.st12{fill:url(#SVGID_11_);}
	.st13{fill:url(#SVGID_12_);}
	.st14{fill:url(#SVGID_13_);}
	.st15{fill:url(#SVGID_14_);}
	.st16{fill:url(#SVGID_15_);}
	.st17{fill:url(#SVGID_16_);}
	.st18{fill:url(#SVGID_17_);}
	.st19{fill:url(#SVGID_18_);}
	.st20{fill:url(#SVGID_19_);}
	.st21{fill:url(#SVGID_20_);}
	.st22{fill:url(#SVGID_21_);}
	.st23{fill:url(#SVGID_22_);}
	.st24{fill:url(#SVGID_23_);}
	.st25{fill:url(#SVGID_24_);}
	.st26{fill:url(#SVGID_25_);}
	.st27{fill:url(#SVGID_26_);}
	.st28{fill:url(#SVGID_27_);}
	.st29{fill:url(#SVGID_28_);}
	.st30{fill:url(#SVGID_29_);}
	.st31{fill:url(#SVGID_30_);}
	.st32{fill:url(#SVGID_31_);}
</style>
<g>
	<g>
		<path class="st0" d="M1411.7,1698.86c-4.04-19.05-12.82-36.21-23.26-52.4c-1.41-2.19-2.86-4.36-4.31-6.52
			c-4.56-6.7-9.32-13.25-14.06-19.71c-2.54-3.25-4.98-6.61-7.37-10.04v-0.01c-3.17-4.58-6.21-9.29-9.14-14.11
			c-10.11-16.66-18.87-34.48-26.93-51.66c-37.8-80.6-55.29-169.68-53.44-258.58c0.84-39.33,8.28-77.21,12.95-116.1
			c0.12-1.03,0.32-2.71,0.46-4.64c0.17-2.45,0.25-5.28-0.07-7.7c-0.03-0.27-0.07-0.55-0.12-0.81l-1.29-6.53l-8.17-41.23
			l-180.11-62.09l-6.46-2.22l-1.45,1.33l-32.4,29.97l-5.54,5.12l-5.62,5.19l-11.95,11.05l0.02,0.02
			c-5.88,7.24-11.55,14.67-17.13,22.04c-27.68,36.56-52.97,75.4-84.11,109.13c-12.72,13.77-26.55,27.39-42.69,37.13
			c-16.05,9.7-33.47,13.52-51.78,15.84c-4.76,0.56-9.6,1.78-14.36,3.57c-1.91,0.71-3.8,1.52-5.67,2.41
			c-20.38,9.7-37.84,29.37-38.05,50.38c-0.05,4.25,0.62,8.57,2.11,12.86c0,0.02,0.01,0.04,0.02,0.05c0.92,2.65,2.15,5.29,3.74,7.9
			c-1.59,0.74-3.18,1.45-4.78,2.16c-2.19,0.98-4.4,1.94-6.62,2.87c-30.85,12.74-62.41,19.79-95.39,23.83
			c-19.34,2.29-38.78,6.46-56.66,14.36c-16.07,7.08-35.43,20.13-34.74,39.96c0.3,9.11,4.72,16.96,10.9,23.47
			c1.97,2.06,4.11,3.99,6.36,5.78c0.02,0.02,0.05,0.04,0.07,0.06c-11.93,4.39-23.98,8.44-36.17,12.29
			c-4.57,1.44-9.16,2.86-13.77,4.25c-2.56,0.77-5.12,1.54-7.69,2.29c-15.65,4.31-30.84,10.31-44.96,18.26
			c-2.2,1.24-4.38,2.53-6.53,3.86c-2.97,1.86-5.89,3.8-8.75,5.84c-18.34,13.09-36.85,30.99-42.3,53.61
			c-10.93,45.45,40.87,70.24,77.63,74.86c13.34,1.68,26.38,1.44,39.2-0.17c5.02-0.62,10.01-1.45,14.97-2.49
			c9.51-1.95,18.89-4.57,28.19-7.62c4.72-1.56,9.43-3.22,14.1-4.97c-3.41,3.51-6.66,7.09-9.73,10.82c-0.01,0-0.01,0.01-0.01,0.01
			c-5.55,6.69-10.49,13.77-14.51,21.33c-6.21,11.68-9.4,27.01,0.34,37.75c9.46,10.41,25.25,12.73,38.61,12.53
			c0.22,0,0.44-0.01,0.66-0.01c2.41-0.04,4.79-0.34,7.18-0.53c-1.18,2.54-2.31,5.11-3.37,7.72v0.01c-0.64,1.57-1.23,3.13-1.81,4.72
			c-7.56,20.93-9.9,46.46,2.66,66c15.53,24.14,46.29,26.94,72.11,21.92c10.69-2.09,21.04-5.66,30.93-10.27
			c4.55-2.11,9-4.46,13.35-6.98c7.91-4.58,15.47-9.76,22.61-15.29c10.19-7.89,19.29-16.86,28.21-26.09
			c0.01-0.02,0.02-0.03,0.04-0.04c2.77-2.87,5.53-5.76,8.3-8.65c2.68-2.77,5.24-5.65,7.88-8.44c-2.35,5.16-4.49,10.39-6.3,15.69
			v0.01c-3.2,9.29-5.46,18.76-6.29,28.34c-1.25,14.48,1.61,30.98,16.96,36.57c14.29,5.19,31.13,0.82,44.43-5.19
			c15.02-6.82,28.13-16.36,39.81-27.5c0-0.01,0.01-0.01,0.01-0.01c3.56-3.37,6.97-6.9,10.29-10.56c-1.51,4.28-2.87,8.66-4.05,13.09
			v0.01c-4.1,15.39-6.11,31.53-5.17,47.26c0.25,4.33,0.74,8.64,1.48,12.88c0.3,1.83,0.67,3.64,1.07,5.45
			c5.38,24.01,20.71,46.87,46.07,52.27c40.47,8.62,79.14-26.98,98.18-58.89c1.66-2.77,3.23-5.6,4.75-8.46
			c1.35-2.54,2.66-5.11,3.94-7.7c1.46,3.06,3.01,6.07,4.69,9c0,0.01,0.01,0.02,0.02,0.03c2.66,4.64,5.64,9.09,8.99,13.29
			c12.83,16.08,31.56,27.92,52.72,26.95c18.1-0.87,34.28-10.64,46.23-23.79c6.38-7.01,11.43-14.55,15.47-22.48
			c0.93-1.83,1.8-3.69,2.63-5.56c3.03,5.06,6.35,9.96,9.95,14.64c8.94,11.63,19.6,21.89,31.92,29.8
			c32.12,20.64,74.82,20.26,94.7-16.54c13.45-24.88,13.04-52.41,6.78-78.88c-1.09-4.63-2.36-9.21-3.78-13.76
			c-2.99-9.63-6.6-19.03-10.41-28c-0.39-0.92-0.76-1.84-1.11-2.76c0-0.01-0.01-0.02-0.01-0.03c-0.59-1.49-1.14-2.98-1.75-4.47
			c3.7,3.07,7.57,5.95,11.59,8.56h0.01c12.24,7.95,25.81,13.42,39.91,14.53c11.14,0.85,22.62-2.03,29.81-11.08
			C1414.65,1728.77,1414.57,1712.53,1411.7,1698.86z"/>
		<g>
			<path class="st1" d="M1150.01,1140.86c-76.58-26.4-100.07-59.8-105.2-68.74c27.06-75.94,109.52-216.59,200.84-185.1
				c101.42,34.96,69.82,205.98,49.25,268.84C1280.93,1158.95,1227.5,1167.58,1150.01,1140.86z"/>
			<path class="st0" d="M1284.64,902.09c-1.95-1.91-3.99-3.72-6.12-5.46c-2.05-1.68-4.19-3.27-6.42-4.79
				c-7.1-4.87-15.07-8.9-23.99-11.97c-1.8-0.62-3.6-1.18-5.39-1.68c-0.03-0.01-0.05-0.02-0.08-0.02c-4.43-1.23-8.81-2.1-13.18-2.63
				c-2.65-0.32-5.27-0.53-7.89-0.6c-2.72-0.08-5.41-0.04-8.08,0.14c-84.41,5.31-154.07,131.4-176.88,197.57
				c0,0,2.06,5.24,8.76,13.47c12.46,15.26,40.97,40.77,102.17,61.88c67.02,23.1,116.26,20.5,139.06,17.09
				c9.24-1.38,14.14-2.9,14.14-2.9C1323.04,1097.55,1346.15,961.7,1284.64,902.09z M1285.12,1150.06
				c-20.31,3.17-67.29,6.17-132.65-16.36c-59.56-20.53-85.68-45.11-95.94-57.88c-1.4-1.75-2.51-3.27-3.35-4.54
				c23.22-62.63,86.73-172.66,158.15-180.66c2.86-0.32,5.74-0.47,8.62-0.46c3.18,0.02,6.38,0.25,9.58,0.71
				c4.54,0.64,9.09,1.73,13.66,3.3c6.42,2.21,12.26,5.01,17.57,8.35c3.13,1.96,6.07,4.1,8.84,6.41c2.5,2.07,4.84,4.28,7.05,6.62
				c52.25,55.05,29.44,179.2,12.39,233.86C1287.87,1149.62,1286.57,1149.84,1285.12,1150.06z"/>
		</g>
		<g>
			<g>
				<path class="st1" d="M1253.8,910.82c-4.6,0-8.91-0.71-13.15-2.18c-11.36-3.91-16.73-11.31-20.84-18.72l-1.51-2.74l0.8-3.04
					c68.98-258.13,229.69-735.38,231.21-739.83c6.97-20.22,33.58-43.7,57.43-43.7c3.81,0,7.46,0.6,10.87,1.77
					c12.29,4.24,21.92,16.07,27.1,33.29c4.39,14.57,4.71,30.59,0.84,41.79c-1.64,4.78-166.03,481.61-271.36,726.92l-1.64,3.83
					l-4.1,0.75C1263.93,909.98,1258.92,910.82,1253.8,910.82z"/>
				<path class="st0" d="M1553.15,133.43c-5.91-19.68-17.29-33.32-32-38.39c-4.22-1.45-8.73-2.19-13.4-2.19
					c-27.43,0-56.81,25.82-64.77,48.9c-1.54,4.46-158.34,469.22-229.49,733.35c-0.65,2.36-1.27,4.71-1.9,7.04l-0.19,0.74l-1.42,5.32
					l1.34,2.42l1.7,3.06c4.63,8.35,11.23,17.52,25.11,22.31c5.06,1.75,10.19,2.59,15.67,2.59c5.77,0,11.37-0.94,17.07-1.99
					l5.78-1.05l2.42-0.44l2.34-5.47l0.94-2.19c0.76-1.77,1.53-3.55,2.29-5.34c105.53-247.07,267.62-717.34,269.27-722.11
					C1558.28,167.32,1557.99,149.48,1553.15,133.43z M1269.06,898.98c-0.33,0.78-0.67,1.56-1,2.32c-2.59,0.47-5,0.9-7.31,1.21
					c-2.4,0.32-4.7,0.53-6.95,0.53c-3.52,0-6.95-0.48-10.61-1.74c-6.3-2.17-10.27-5.52-13.67-10.44c-1.01-1.43-1.96-3-2.91-4.71
					c0.28-1.07,0.58-2.14,0.86-3.21c0.66-2.45,1.32-4.91,2-7.4c70.91-262.15,226.73-724.45,228.21-728.72
					c5.82-16.91,29.65-38.45,50.07-38.45c2.87,0,5.66,0.41,8.34,1.34c21.7,7.49,29.78,45.93,23.12,65.2
					c-6.7,19.5-163.08,472.41-267.11,716.92C1271.08,894.24,1270.06,896.63,1269.06,898.98z"/>
			</g>
		</g>
		<path class="st0" d="M1081.59,1067.94c18.8-62.5,58.26-139.53,127.56-155.35c-27.79,19.18-52.01,42.02-70.62,70.5
			C1118.06,1010.32,1102.71,1041.2,1081.59,1067.94z"/>
		<path class="st0" d="M1472.77,149.08c-53.71,169.21-108.68,338-161.87,507.38c-23.36,74.34-45.43,149.05-68.69,223.41
			c20.41-77.2,40.82-154.5,64.14-230.87c28.57-93.49,57.64-186.75,88.72-279.43C1419.84,295.66,1445.91,222.25,1472.77,149.08z"/>
		<g>
			<path class="st1" d="M1035.51,1171.18c-22.21,33.12-47.86,63.8-74.78,93.16c-15.49,16.93-31.33,33.58-48.41,48.88
				c-18.02,16.12-37.55,30.52-56.51,45.51c-34.28,27.12-70.79,60.23-76.82,106.23c-2.83,21.59,12.36,36.1,33.14,38.48
				c20.04,2.29,39.77-7.43,55.58-18.83c33.29-24.19,59.77-58.13,86.73-88.87c-22.36,28.22-44.49,57.23-71.06,81.68
				c-15.18,13.96-33.2,26.67-53.71,31.11c-18.47,3.99-41.21-0.83-52.33-17.38c-11.7-17.38-3.09-40.13,3.8-57.57
				c8.68-22.02,23.31-39.52,40.58-55.39c35.17-32.35,75.82-57.99,110.49-91C969.52,1251.65,1004.85,1212.6,1035.51,1171.18z"/>
			<path class="st1" d="M1097.56,1157.84c-15.11,38.33-36.29,71.79-62.76,103.33c-15.26,18.15-31.17,35.74-46.08,54.18
				c-14.6,18.04-28.11,36.6-25.56,61.09c2.22,21.51,16.07,37.46,37.37,41.53c22.22,4.21,38.7-8.35,51.06-25.6
				c13.34-18.61,22.91-40.09,33.32-60.42c10.67-20.81,20.88-41.83,30.3-63.25c13.67-31.09,24.98-63.11,36.07-95.21
				c-10.11,35.36-21.01,70.38-35.15,104.36c-9.08,21.85-18.97,43.32-29.41,64.54c-9.86,20.04-19.36,41.23-33.17,58.93
				c-12.77,16.39-29.91,27.27-51.35,24.42c-20.58-2.75-36.66-14.93-43.26-34.88c-15.47-46.62,28.41-84.89,56.55-115.68
				c17.58-19.23,34.69-38.75,49.8-60C1078.09,1197.17,1088.28,1177.83,1097.56,1157.84z"/>
			<path class="st1" d="M1109.61,1287.15c-33.7,80.72-53.98,165.85-58.53,253.33c-1.23,23.6-1.39,47.32-0.38,70.92
				c0.93,21.97,2.62,42.6,15.58,61.15c11.33,16.21,31.67,31.87,52.52,25.06c19.16-6.24,27.77-34.06,31.35-51.54
				c3.19-15.6,2.8-31.91,3.54-47.77c0.48-10.15,1.05-20.33,1.58-30.49c0.14,36.82,5.2,76.97-11.73,110.96
				c-9.27,18.65-25.53,30.74-47.02,24.8c-19.85-5.3-35.4-23-43.85-41.05c-9.4-20.12-9.23-43.35-9.83-65.12
				c-0.66-23.89,0.29-47.68,2.02-71.47c4.05-47.64,12.36-94.64,25.93-140.48C1080.85,1351.47,1094.07,1318.97,1109.61,1287.15z"/>
			<path class="st1" d="M986.95,1452.87c-13.62,26.2-27.11,52.39-38.66,79.58c-11.22,27.72-27.55,56.71-29.85,86.97
				c-1.43,15.46,1.02,34.93,13.12,45.94c13.32,12.14,31.65,6.51,44.65-3.21c25.1-18.75,39.42-47.52,54.79-74.12
				c-13.3,28.65-26.24,58.2-51.26,78.64c-13.12,10.72-31.58,17.12-47.19,7.95c-15.3-8.98-20.94-27.46-21.78-44.18
				c-0.61-12.06,1.59-24.71,5.4-36.1c6.22-18.58,14.17-37.05,22.64-54.69C953.25,1509.57,969.01,1480.96,986.95,1452.87z"/>
			<path class="st1" d="M825.57,1381.71c-2.43,0.03-4.83-0.1-7.19-0.39c-10.42-1.23-20.05-5.35-28.16-11.61
				c-0.03-0.01-0.05-0.03-0.07-0.05c-3.43-2.64-6.57-5.65-9.4-8.97c1.6-0.71,3.19-1.42,4.78-2.16c-1.59-2.61-2.82-5.25-3.74-7.9
				c7.37,15.1,20.98,26.2,37.34,29.99C821.23,1381.11,823.38,1381.47,825.57,1381.71z"/>
			<path class="st1" d="M792.18,1367.61c-0.64,0.71-1.29,1.41-1.96,2.1c-10.69,11.14-24.23,19.5-37.2,27.73
				c-17.95,11.38-36.48,21.94-55.2,32.01c-4.27,2.32-8.58,4.65-12.91,6.96c-2.29,1.22-4.6,2.44-6.91,3.65
				c-23.52,12.32-47.97,23.8-73.39,30.9c-2.24-1.79-4.38-3.72-6.36-5.78c9.2-1.92,18.05-5,26.97-7.98
				c20.69-7.64,40.89-16.57,60.76-26.13c20.98-10.11,41.7-20.88,61.86-32.51c14.62-8.46,30.17-17.01,42.32-28.9
				C790.83,1368.98,791.51,1368.31,792.18,1367.61z"/>
			<path class="st1" d="M597.59,1641.61c31.38-25.79,64.3-49.58,96.45-74.38c30.68-23.7,58.94-50.02,86.67-77.02
				c-26.28,27.28-53.1,53.8-82.19,78.09c-31.82,26.59-64.79,51.76-96.02,79.07C600.86,1645.45,599.23,1643.53,597.59,1641.61z"/>
			<path class="st1" d="M837.63,1503.35c-1.2,1.37-2.4,2.74-3.62,4.1c-32.28,36.55-65.95,71.36-101.69,104.6
				c-21.4,19.89-44.16,38.92-63.32,61.08c-12.76,14.79-22.83,30.34-31.25,47.53c1.06-2.61,2.19-5.18,3.37-7.72
				c-2.39,0.18-4.77,0.49-7.18,0.53c-0.21,0-0.43,0.01-0.66,0.01c8.18-15.18,17.74-29.15,29.52-42.24
				c19.69-21.88,42.79-40.65,64.87-60.04c37.18-32.87,72.35-67.31,106.08-103.67C835.07,1506.14,836.35,1504.75,837.63,1503.35z"/>
			<path class="st1" d="M861.24,1506.2c-12.97,13.67-24.47,27.68-34.47,43.68c-9.96,18.4-20.69,39.81-16.41,61.32
				c9.62,48.37,67.52,18.4,93.11,2.59c-25.5,22.45-84.38,53.12-99.35,3.37c-6.82-22.64,3.28-46.91,15.33-65.92
				C830.69,1533.47,844.85,1519.24,861.24,1506.2z"/>
			<path class="st1" d="M815.73,1753.24c1.82-5.3,3.95-10.53,6.3-15.69c-2.64,2.79-5.2,5.67-7.88,8.44
				c-2.77,2.89-5.53,5.78-8.3,8.65c34.15-40.89,69.96-80.33,103.9-121.42C879.12,1673.81,846.73,1712.97,815.73,1753.24z"/>
			<path class="st1" d="M675.58,1584.5c-17.34,0.88-40.28,1.05-50.85-15.39c-14.26-22.18,6.29-42.66,24.64-52.68
				c25.11-13.67,51.11-25.56,76.02-39.68c19.61-11.11,38.28-23.72,56.82-36.48c-36.09,32.13-76.44,56.12-119.52,77.68
				c-16.71,8.38-44.31,22.2-34.79,45.92C635.1,1581.76,659.24,1582.63,675.58,1584.5z"/>
			<path class="st1" d="M961.86,1673.5c-0.44,1.23-0.88,2.47-1.34,3.7c-13.5,37.38-29.36,73.75-43.64,110.79
				c1.18-4.44,2.55-8.81,4.05-13.09c-3.31,3.66-6.73,7.18-10.29,10.56c16.27-36.2,34.08-71.64,49.61-108.16
				C960.8,1676.03,961.32,1674.77,961.86,1673.5z"/>
			<path class="st1" d="M1071.88,1839.81c-1.68-2.93-3.23-5.94-4.69-9c-1.28,2.59-2.59,5.16-3.94,7.7
				c-8.3-21.1-13.33-42.42-15.25-64.7c-0.22-2.53-0.4-5.06-0.54-7.61c-0.22-3.99-0.34-8.02-0.36-12.08
				c-0.16-27.67,4.58-55.01,10.88-81.87c0.77-3.28,1.56-6.57,2.37-9.84c0.29-1.19,0.59-2.38,0.89-3.58
				c-0.26,1.26-0.53,2.54-0.79,3.8c-0.71,3.44-1.38,6.87-2.04,10.32c-4.91,25.94-8.24,52.1-7.55,78.64
				C1052.48,1782.9,1058.75,1811.41,1071.88,1839.81z"/>
			<path class="st1" d="M1207.9,1842.88c-3.61-4.68-6.92-9.58-9.95-14.64c-0.83,1.87-1.7,3.73-2.63,5.56
				c-13.18-28.78-23.72-58.17-30.49-89.4c-6.19-28.57-10.28-57.6-13.56-86.65c-0.41-3.61-0.81-7.2-1.19-10.81
				c0.46,3.28,0.95,6.56,1.43,9.84c4.34,29.13,9.53,58.23,16.79,86.78C1177.24,1778.62,1190.97,1811.1,1207.9,1842.88z"/>
			<path class="st1" d="M1186.08,1542.51c5.52,16.58,11.96,32.67,20.13,48.15c9.47,17.96,22.29,38.18,40.24,48.68
				c18.87,11,40.21-3.23,43.83-23.34c4.07-22.53-4.23-47.13-10.79-68.42c-7.12-23.05-15.26-45.75-21.84-68.98
				c-6.5-22.88-10.82-46.25-13.85-69.84c-5.87-45.86-6.4-91.96-4.44-138.08c0.88-20.93,2.18-41.85,3.42-62.76
				c-1.32,82.29-2.85,163.91,15.02,244.81c10.1,45.7,31.86,88.56,39.31,134.81c3.32,20.67,2.37,44.73-17.34,57
				c-19.62,12.18-38.23,2.92-52.51-12.63C1204.95,1607.63,1192.78,1574.24,1186.08,1542.51z"/>
			<path class="st1" d="M1158.96,1238.17c-10.6,33.93-16.25,69.79-20.99,104.95c-6.12,45.55-10.79,93.36-4.96,139.16
				c2.03,16.02,6.39,48.39,26.9,51.34c21.79,3.11,36.31-15,38.5-34.61c2.61-23.21-1.07-47.13-2.31-70.32
				c-1.21-22.31-1.72-44.7-0.91-67.03c1.27-35.9,6.35-71.18,13.83-106.23c-6.13,40.06-9.86,80.22-9.27,120.78
				c0.33,23.26,2.2,46.41,3.99,69.59c1.66,21.66,5.87,46.71-1.12,67.81c-5.85,17.58-27.7,32.66-46.73,26.86
				c-20.74-7.38-26.05-32.12-29.07-51.5c-6.53-46.05-1.41-93.73,5.62-139.4C1138.23,1311.86,1146.08,1274.14,1158.96,1238.17z"/>
			<path class="st1" d="M1324.24,1728.25c0.61,1.49,1.16,2.98,1.75,4.47c-16.21-29.35-30.35-59.49-42.22-91.03
				c-0.46-1.22-0.92-2.45-1.37-3.67c0.52,1.17,1.03,2.34,1.56,3.51c14.81,33.26,32.18,64.78,51.88,95.28
				C1331.81,1734.2,1327.94,1731.32,1324.24,1728.25z"/>
			<path class="st1" d="M1055.17,1098.27c28,26.97,63.83,44.97,100.97,56.04c37.38,11.98,75.86,17.44,115.01,14.36
				c-39.34,8.95-78.99,4.73-117.3-7.15C1116.03,1149.75,1079.69,1129.89,1055.17,1098.27z"/>
			<path class="st1" d="M1103.06,1208.89c-28.74,75.69-71.47,148.2-130.39,204.17c25.22-31.82,48.43-64.36,69.82-98.96
				C1064.53,1280.2,1083.6,1244.29,1103.06,1208.89z"/>
			<path class="st1" d="M775.5,1476.66c20.69-3.24,40.35-19.28,56.5-31.63c21.56-16.49,41.98-34.35,61.86-52.81
				c34.55-32.09,66.74-66.58,95.73-103.78c-24.62,41.77-57.45,78.19-92.69,111.26c-19.72,18.2-40.43,35.49-62.74,50.43
				C817.29,1461.42,796.57,1476.03,775.5,1476.66z"/>
			<path class="st1" d="M660.62,1809.88c21.83-35.52,45.5-69.28,73.35-100.41c25.27-28.23,52.51-54.39,80.06-80.38
				c1.68,1.88,3.36,3.77,5.05,5.64c-28.22,24.99-56.15,50.14-82.19,77.43C708.14,1742.3,683.5,1775.18,660.62,1809.88z"/>
			<path class="st1" d="M443.58,1590.54c33.66-2.48,66.99-10.16,99.65-18.39c17.74-4.46,35.48-9.23,52.81-15.14
				c7.54-2.6,14.89-5.4,22.07-8.85c4.48-3.05,4.77-0.16,8.05,3.64c-11.03,7.18-24.54,10.41-37.09,13.8
				c-17.66,4.79-35.53,8.72-53.46,12.34C505.32,1584.03,474.52,1589.55,443.58,1590.54z"/>
			<path class="st1" d="M827.98,1639.42c-4.16-19.01,5.54-38.69,14.22-55.1c11.29-21.34,25.54-41.2,40.48-60.13
				c25.57-32.39,53.69-62.64,83.2-91.44c-25.29,32.41-52.12,63.59-77.28,96.08c-14.06,18.15-28,36.47-40.27,55.91
				C838.26,1600.66,826.56,1619.87,827.98,1639.42z"/>
			<path class="st1" d="M942.32,1675.1c21.88-73.34,49.61-145.46,82.92-214.38C1002.6,1533.61,974.69,1605.98,942.32,1675.1z"/>
			<path class="st1" d="M1109.59,1702.13c-16.17-58.23-20.24-116.99-19.52-177.21c0.74-61.85,10.9-122.44,25.57-182.35
				c-8.77,59.85-16.5,119.13-18.01,179.72C1096.52,1582.9,1098.87,1642.34,1109.59,1702.13z"/>
			<path class="st1" d="M1169.95,1536.93c-13.2-40.48-20.75-82.95-20.11-125.7c0.36-24,0.61-48.97,5.79-72.5
				c3.78-20.04,8.74-39.14,14.86-58.61c-3.3,18.84-6.69,37.45-9.03,56.4c-3.07,24.83-3.45,49.73-4.1,74.69
				C1156.28,1453.44,1162.24,1495.58,1169.95,1536.93z"/>
			<path class="st1" d="M818.85,1805.56c46.68-37.24,77.17-89.73,104.2-142.11c2.23,1.17,4.48,2.32,6.72,3.48
				C900.39,1718.5,867.39,1770.09,818.85,1805.56z"/>
			<path class="st1" d="M958.91,1893.83c21.18-46.56,32.23-97.02,43.3-146.77c9.83-44.15,18.37-88.56,27.13-132.91
				c-2.63,47.19-11.01,94.62-21.15,140.68C997.64,1802.76,984.54,1851.59,958.91,1893.83z"/>
			<path class="st1" d="M1158.01,1865.5c-33.92-46.88-48.05-106.74-56.28-163.14c2.13-0.16,7.41-1.9,7.67,0.57
				c0.77,7.49,1.35,15.04,2.31,22.51c2.16,16.91,5.47,34.03,9.84,50.5C1129.88,1807.36,1140.04,1838.2,1158.01,1865.5z"/>
			<path class="st1" d="M1322.6,1856.08c-23.01-3.83-40.59-18.52-55.47-35.83c-18.17-21.13-31.68-45.97-43.11-71.28
				c-19.96-45.52-34.06-94.83-38.69-144.44c10.87,46.5,24.19,92.45,43.35,136.29c10.94,25.02,23.4,49.67,39.48,71.84
				C1282.1,1831.92,1299.27,1849.27,1322.6,1856.08z"/>
			<path class="st1" d="M1403.05,1742.97c-33.78-7.27-57.02-41.08-73.61-68.95c-9.68-16.71-18.19-34.04-25.11-52.08
				c-5.29-13.74-10.9-28.3-12.64-43.03c10.11,30.82,26.41,60.87,42.79,88.75C1351.23,1696.23,1371.15,1729.66,1403.05,1742.97z"/>
			<path class="st1" d="M779.66,1337.71c26.37-6.18,53.45-12.24,77.91-24.26c28.58-14.02,52.98-33.07,75.47-55.47
				c39.12-38.91,71.73-83.77,105.25-127.42c-30.48,48.79-63.34,99.68-106.09,138.77c-22.91,20.94-47.87,40.41-77.32,51.23
				C830.37,1329.56,805.47,1334.31,779.66,1337.71z"/>
			<path class="st1" d="M599.72,1705.33c0.3-21.51,11.86-36.66,26.48-51.52c17.91-18.24,38.76-33.77,58.82-49.54
				c33.96-26.74,66.6-54.78,98.98-83.38c-28.71,32.83-60.3,62-94.31,89.28c-19.19,15.38-39.04,29.94-57.91,45.77
				C616.1,1670.02,603,1683.89,599.72,1705.33z"/>
			<path class="st1" d="M629.56,1571.44c11.83-27.24,43.74-37.71,67.87-51.52c26.78-15.32,51.46-32.9,75.31-52.44
				c1.6,1.96,3.19,3.9,4.78,5.87c-24.09,18.12-48.95,34.8-75.89,48.49C676.56,1535.07,642.8,1544.17,629.56,1571.44z"/>
			<path class="st1" d="M1267.29,1646.2c1.58-24.56-0.07-47.67-7.1-71.43c-8.57-29.06-18.32-57.53-25.08-87.1
				c-12.12-53.39-15.58-108.19-16.05-162.77c6.04,53.01,11.05,106.26,22.81,158.41c6.62,29.37,15.77,57.99,22.8,87.23
				C1271.1,1596.21,1271.72,1620.22,1267.29,1646.2z"/>
			<path class="st1" d="M754.99,1796.05c-4.34,2.53-8.8,4.87-13.35,6.98c-0.05-21.81-0.11-43.66-0.18-65.47
				C745.97,1757.06,750.49,1776.54,754.99,1796.05z"/>
			<path class="st1" d="M544.75,1546.28c-9.05-4.53-17.8-9.23-26.48-14.46c-8.28-5.95-15.47-12.74-22.72-19.84
				c2.15-1.33,4.32-2.62,6.53-3.86c5.81,7.29,11.64,14.33,18.5,20.72C528.43,1535.02,536.45,1540.71,544.75,1546.28z"/>
			<path class="st1" d="M587.08,1510.07c-11.93-6.44-22.72-13.01-32.35-22.51c4.61-1.39,9.2-2.81,13.77-4.25
				C573.4,1493.14,579.86,1501.47,587.08,1510.07z"/>
			<path class="st1" d="M576.3,1643.63c-4.96,1.03-9.95,1.87-14.97,2.49c9.68-16.18,16.95-33.48,20.62-52.11
				C582.75,1610.89,580.56,1627.46,576.3,1643.63z"/>
			<path class="st1" d="M965.6,1829.03c-17.28,7.22-34.54,13.8-52.42,19.11c-0.74-4.24-1.22-8.55-1.48-12.88
				C929.81,1834.27,947.61,1831.94,965.6,1829.03z"/>
			<path class="st1" d="M1048.23,1773.96c-5.9-3.91-11.97-7.37-18.42-10.32c7.29,0.53,14.42,1.75,21.54,3.43
				C1050.32,1769.39,1049.26,1771.68,1048.23,1773.96z"/>
			<path class="st1" d="M1341.3,1777.26c-28.9-3.73-53.26-17.14-78.5-31.99c24.79,9.54,48.58,18.22,74.72,18.23
				C1338.94,1768.05,1340.21,1772.63,1341.3,1777.26z"/>
			<path class="st1" d="M1335.86,1637.82c-1.37-0.88-0.81-0.36-1.26-1.38c16.73,2.87,32.92,3.81,49.53,3.52
				c1.45,2.15,2.9,4.32,4.31,6.52c-18.18-1.09-37.87-2.59-53.64-9.85C1335.34,1637.55,1334.44,1636.7,1335.86,1637.82z"/>
			<path class="st1" d="M1362.7,1610.18c-11.13-4.22-20.83-10.12-30.99-16.46c7.43,1.03,14.58,2,21.84,2.35
				C1356.49,1600.9,1359.53,1605.61,1362.7,1610.18z"/>
			<path class="st1" d="M682.83,1434.3c7.18,7.58,15.07,13.44,24.07,18.69c-10.41-3.05-19.88-7.07-29-12.98
				C679.55,1438.1,681.19,1436.22,682.83,1434.3z"/>
			<path class="st1" d="M845.95,1310.73c-9.84-2.67-23.52-12.38-28.24-23.4c1.87-0.9,3.76-1.71,5.67-2.41
				C825.2,1295.27,838.45,1307.21,845.95,1310.73z"/>
		</g>
	</g>
	<g>
		<linearGradient id="SVGID_1_" gradientUnits="userSpaceOnUse" x1="867.7642" y1="2029.0747" x2="1148.3971" y2="1413.4929">
			<stop  offset="0" style="stop-color:#27AAE1"/>
			<stop  offset="0.9806" style="stop-color:#2B3990"/>
		</linearGradient>
		<path class="st2" d="M1147.55,1148.02c-61.22-21.11-89.71-46.62-102.17-61.89l-11.96,11.06l0.02,0.01
			c-5.88,7.24-11.55,14.67-17.13,22.05c-27.68,36.55-52.97,75.4-84.11,109.13c-12.71,13.77-26.55,27.38-42.68,37.12
			c-16.06,9.7-33.48,13.52-51.79,15.85c-4.74,0.55-9.57,1.79-14.32,3.57c1.82,10.34,15.03,22.29,22.53,25.81
			c-9.84-2.67-23.5-12.38-28.22-23.41c-20.39,9.7-37.84,29.38-38.05,50.38c26.36-6.17,53.44-12.24,77.89-24.25
			c28.58-14.02,52.98-33.07,75.47-55.47c39.12-38.91,71.73-83.77,105.25-127.42c-30.48,48.79-63.34,99.68-106.09,138.77
			c-22.91,20.94-47.87,40.41-77.32,51.23c-24.51,8.99-49.41,13.74-75.21,17.14c-0.04,4.29,0.64,8.63,2.16,12.96
			c7.38,15.08,20.98,26.15,37.35,29.93c0.85-0.8,1.67-1.61,2.53-2.41c35.17-32.35,75.82-58,110.49-91
			c37.31-35.55,72.64-74.59,103.31-116.02c-22.2,33.12-47.86,63.8-74.78,93.16c-15.49,16.93-31.33,33.58-48.41,48.88
			c-18.02,16.12-37.55,30.53-56.51,45.51c-34.28,27.12-70.79,60.23-76.82,106.23c-0.51,3.91-0.42,7.57,0.18,10.98
			c19.34-4.42,37.64-19.3,52.84-30.92c21.56-16.49,41.98-34.35,61.86-52.81c34.56-32.09,66.74-66.58,95.73-103.78
			c-24.62,41.77-57.45,78.19-92.69,111.26c-19.72,18.2-40.43,35.49-62.74,50.43c-15.88,10.64-35.16,24.18-54.94,26.28
			c2.87,15.2,16.03,25.12,32.89,27.05c20.04,2.29,39.77-7.43,55.59-18.83c33.29-24.19,59.77-58.13,86.73-88.87
			c-22.36,28.22-44.49,57.23-71.06,81.68c-14.1,12.97-30.66,24.85-49.39,30.03c-32.27,36.54-65.93,71.36-101.65,104.6
			c-21.4,19.89-44.17,38.92-63.33,61.08c-12.73,14.76-22.78,30.31-31.19,47.46c-0.65,1.59-1.29,3.18-1.87,4.79
			c-7.56,20.93-9.9,46.46,2.66,66c5.64,8.78,13.32,14.7,22.02,18.49c21.83-35.51,45.49-69.27,73.34-100.39
			c24.43-27.28,50.69-52.63,77.3-77.77c-2.92-3.8-5.36-8.58-7.16-14.55c-6.82-22.64,3.28-46.91,15.33-65.92
			c11.26-17.77,25.41-32,41.81-45.04c-12.97,13.67-24.47,27.68-34.47,43.68c-9.96,18.4-20.69,39.81-16.41,61.32
			c2.62,13.15,8.81,20.47,16.94,23.9c-1.99-17.65,6.88-35.61,14.9-50.79c11.29-21.34,25.54-41.2,40.48-60.13
			c25.57-32.39,53.69-62.64,83.2-91.44c-25.29,32.41-52.12,63.59-77.28,96.08c-14.06,18.15-28,36.47-40.27,55.91
			c-9.37,14.82-20.14,32.48-20.44,50.63c21.83,8.6,57.11-10.17,75.58-21.58c-20.78,18.29-63.72,42.03-87.01,23.28
			c-27.33,24.22-54.33,48.65-79.57,75.1c-28.74,30.13-53.37,63.01-76.25,97.71c15.23,6.63,33.65,6.63,50.09,3.43
			c10.7-2.09,21.02-5.73,30.93-10.34c-0.06-21.79-0.11-43.61-0.18-65.4c4.51,19.49,9.01,38.98,13.52,58.48
			c7.91-4.58,15.48-9.75,22.62-15.28c10.29-7.97,19.47-17.05,28.47-26.36c34.1-40.79,69.81-80.17,103.68-121.19
			c-30.64,40.6-63.03,79.77-94.03,120.05c-3.19,9.28-5.45,18.76-6.29,28.33c-1.26,14.47,1.6,30.98,16.96,36.57
			c14.28,5.18,31.12,0.82,44.43-5.2c15.05-6.83,28.15-16.4,39.85-27.56c16.26-36.18,34.02-71.6,49.56-108.11
			c-9.15,2.72-18.87,2.5-27.67-2.67c-1.85-1.08-3.54-2.31-5.12-3.65c-28.79,50.22-61.32,100.05-108.59,134.6
			c46.13-36.8,76.44-88.49,103.23-140.26c-7.53-9.68-10.69-22.73-11.3-34.86c-0.61-12.06,1.58-24.71,5.4-36.1
			c6.22-18.58,14.17-37.05,22.64-54.69c14.44-30.07,30.19-58.68,48.14-86.78c-13.62,26.2-27.11,52.39-38.66,79.58
			c-11.22,27.72-27.55,56.71-29.85,86.97c-1.43,15.47,1.02,34.93,13.12,45.95c3.64,3.32,7.67,5.27,11.85,6.21
			c21.72-72.13,49.06-143.04,81.83-210.85c-22.27,71.69-49.66,142.86-81.35,210.95c10.98,2.26,23.02-2.56,32.33-9.53
			c25.1-18.75,39.42-47.52,54.8-74.12c-13.3,28.65-26.24,58.2-51.26,78.65c-5.64,4.61-12.28,8.41-19.25,10.53
			c-13.52,37.38-29.34,73.74-43.61,110.78c-4.09,15.36-6.11,31.49-5.18,47.19c18.1-0.99,35.91-3.24,53.88-6.14
			c-17.27,7.22-34.56,13.71-52.43,19.02c0.32,1.85,0.67,3.7,1.08,5.53c5.38,24.01,20.71,46.88,46.07,52.27
			c40.47,8.62,79.14-26.97,98.18-58.89c1.68-2.8,3.26-5.66,4.79-8.55c-8.26-21.05-13.3-42.33-15.23-64.56
			c-5.85-3.87-11.86-7.3-18.25-10.23c5.97,0.43,11.83,1.35,17.66,2.58c-0.22-4-0.35-8.02-0.37-12.09
			c-0.16-27.67,4.59-55,10.89-81.86c-1.99-3.19-3.77-6.46-5.31-9.75c-9.4-20.13-9.23-43.35-9.83-65.12
			c-0.66-23.89,0.29-47.68,2.02-71.47c4.05-47.64,12.36-94.64,25.93-140.48c3.25-10.97,6.86-21.77,10.73-32.45
			c-8.15,16.75-16.61,33.74-28.01,48.34c-12.77,16.39-29.91,27.27-51.35,24.42c-11.4-1.52-21.41-5.95-29.21-12.98
			c-0.1,0.09-0.19,0.19-0.29,0.29c0.09-0.11,0.17-0.22,0.25-0.32c-6.25-5.65-11.08-12.98-14.02-21.86
			c-15.47-46.62,28.41-84.9,56.55-115.68c17.58-19.24,34.69-38.75,49.8-60c12.83-18.01,23.02-37.36,32.31-57.35
			c-15.11,38.33-36.29,71.79-62.76,103.33c-15.26,18.15-31.17,35.74-46.09,54.18c-14.6,18.04-28.11,36.6-25.56,61.09
			c1.27,12.32,6.37,22.79,14.48,30.28c23.31-29.81,44.89-60.32,64.86-92.63c22.04-33.9,41.11-69.81,60.57-105.21
			c-27.79,73.19-68.71,143.36-124.65,198.52c5.94,5.22,13.39,8.9,22.11,10.57c22.22,4.21,38.7-8.35,51.06-25.6
			c13.34-18.61,22.91-40.09,33.32-60.42c10.67-20.81,20.88-41.83,30.3-63.25c13.67-31.09,24.98-63.11,36.07-95.21
			c-10.11,35.36-21.01,70.38-35.15,104.36c-6.78,16.31-14.01,32.41-21.59,48.35c-24.66,68.95-39.62,140.77-43.44,214.27
			c-1.23,23.6-1.39,47.32-0.38,70.92c0.76,18.05,2.05,35.19,9.67,51.02c0.3-1.19,0.58-2.39,0.88-3.59
			c-0.27,1.27-0.51,2.54-0.77,3.81c1.63,3.36,3.54,6.67,5.8,9.91c9.51,13.6,25.35,26.75,42.52,26.64
			c-15.5-57.26-19.45-115.06-18.74-174.26c0.74-61.85,10.9-122.44,25.57-182.35c-8.77,59.85-16.5,119.13-18.01,179.72
			c-1.09,59.61,1.18,118.09,11.45,176.89c3.21-0.05,6.46-0.51,9.73-1.57c19.16-6.24,27.77-34.06,31.35-51.54
			c3.19-15.6,2.8-31.91,3.54-47.77c0.48-10.15,1.05-20.33,1.58-30.49c0.11,29.1,3.25,60.27-3.78,88.84
			c4.34,29.17,9.53,58.33,16.8,86.92c8.92,35,22.64,67.42,39.53,99.17c8.96,11.68,19.62,22.01,31.98,29.95
			c32.12,20.64,74.83,20.26,94.71-16.55c13.45-24.89,13.03-52.43,6.76-78.91c-28.87-3.73-53.25-17.11-78.48-31.95
			c24.78,9.53,48.58,18.21,74.71,18.22c-2.99-9.63-6.58-19.02-10.4-27.99c-0.43-1-0.82-2.01-1.21-3.01
			c-16.16-29.3-30.28-59.39-42.13-90.86c-1.25,1.02-2.56,2-4.01,2.9c-19.62,12.18-38.23,2.92-52.51-12.63
			c-22.32-24.27-34.48-57.66-41.18-89.39c5.52,16.58,11.96,32.67,20.13,48.15c9.47,17.96,22.29,38.18,40.24,48.68
			c7.01,4.09,14.37,4.68,21.03,2.79c1.15-23.05-0.66-44.92-7.29-67.36c-8.57-29.06-18.32-57.53-25.08-87.1
			c-12.12-53.39-15.58-108.19-16.05-162.77c6.04,53.01,11.05,106.26,22.81,158.42c6.62,29.37,15.77,57.99,22.8,87.23
			c6.08,24.26,6.91,47.07,3.24,71.45c11.06-3.33,20.13-13.53,22.38-26c4.07-22.53-4.23-47.13-10.79-68.42
			c-7.12-23.05-15.26-45.76-21.84-68.98c-6.5-22.88-10.82-46.25-13.85-69.84c-5.87-45.86-6.4-91.96-4.44-138.09
			c0.88-20.93,2.18-41.85,3.42-62.76c-1.32,82.29-2.86,163.92,15.02,244.81c10.1,45.7,31.86,88.56,39.31,134.81
			c0.48,2.95,0.85,5.98,1.11,9.03c9.91,24.62,23.03,48.58,36.27,71.11c16.75,28.57,36.67,61.99,68.56,75.3
			c0.88-0.84,1.73-1.73,2.52-2.72c9.1-11.48,9.02-27.72,6.14-41.39c-4.04-19.05-12.83-36.21-23.27-52.41
			c-18.18-1.08-37.86-2.57-53.63-9.84c0.54,0.93-0.36,0.07,1.06,1.2c-1.37-0.88-0.8-0.36-1.26-1.39c16.73,2.87,32.91,3.8,49.51,3.51
			c-4.54-6.7-9.3-13.25-14.05-19.71c-2.55-3.28-4.99-6.67-7.39-10.13c-11.1-4.23-20.84-10.06-30.97-16.38
			c7.45,1.04,14.62,2,21.9,2.35c-10.13-16.66-18.93-34.47-26.98-51.65c-37.8-80.6-55.29-169.69-53.44-258.59
			c0.83-39.33,8.28-77.21,12.95-116.1c0.12-1.03,0.32-2.72,0.46-4.64C1263.8,1168.51,1214.58,1171.12,1147.55,1148.02z
			 M1008.19,1754.84c-10.56,47.93-23.65,96.77-49.28,139.01c21.18-46.56,32.23-97.02,43.3-146.78
			c9.83-44.15,18.37-88.56,27.13-132.92C1026.71,1661.34,1018.33,1708.77,1008.19,1754.84z M1228.67,1740.83
			c10.94,25.02,23.4,49.67,39.48,71.84c13.95,19.26,31.11,36.61,54.45,43.42c-23.01-3.83-40.59-18.52-55.48-35.83
			c-18.17-21.13-31.68-45.97-43.11-71.28c-19.96-45.52-34.06-94.83-38.69-144.44C1196.19,1651.04,1209.51,1696.99,1228.67,1740.83z
			 M1199.73,1376.2c0.34,23.26,2.2,46.41,3.99,69.59c1.66,21.66,5.87,46.71-1.12,67.81c-5.85,17.58-27.7,32.66-46.73,26.86
			c-20.74-7.38-26.06-32.12-29.07-51.5c-6.53-46.05-1.41-93.73,5.62-139.4c5.81-37.69,13.65-75.42,26.53-111.39
			c-10.6,33.93-16.25,69.8-20.99,104.95c-6.12,45.55-10.79,93.37-4.97,139.17c2.03,16.02,6.39,48.39,26.9,51.34
			c3.17,0.45,6.16,0.41,9,0.03c-12.55-39.49-19.69-80.82-19.07-122.41c0.36-24,0.61-48.97,5.79-72.5
			c3.78-20.04,8.74-39.14,14.86-58.61c-3.3,18.84-6.69,37.45-9.03,56.4c-3.07,24.83-3.45,49.73-4.1,74.69
			c-1.04,41.08,4.59,82.09,11.99,122.36c16.48-2.47,27.21-17.95,29.07-34.57c2.61-23.21-1.07-47.13-2.32-70.32
			c-1.21-22.31-1.72-44.7-0.91-67.03c1.27-35.9,6.35-71.18,13.83-106.23C1202.87,1295.48,1199.15,1335.64,1199.73,1376.2z
			 M1153.85,1161.52c-37.82-11.77-74.16-31.63-98.68-63.25c28,26.97,63.84,44.97,100.97,56.05c37.38,11.98,75.86,17.45,115.01,14.36
			C1231.81,1177.62,1192.15,1173.4,1153.85,1161.52z"/>
		<linearGradient id="SVGID_2_" gradientUnits="userSpaceOnUse" x1="1133.9115" y1="2150.4065" x2="1414.5444" y2="1534.8248">
			<stop  offset="0" style="stop-color:#27AAE1"/>
			<stop  offset="0.9806" style="stop-color:#2B3990"/>
		</linearGradient>
		<path class="st3" d="M1329.44,1674.03c-9.68-16.71-18.19-34.04-25.11-52.08c-1.96-5.09-3.96-10.29-5.79-15.56
			c-0.3,13.39-3.98,26.32-14.58,35.1c14.83,33.28,32.17,64.82,51.88,95.33c12.24,7.95,25.81,13.42,39.92,14.53
			c9.92,0.76,20.1-1.48,27.28-8.37C1369.26,1735.7,1346.02,1701.89,1329.44,1674.03z"/>
		<linearGradient id="SVGID_3_" gradientUnits="userSpaceOnUse" x1="463.0016" y1="1844.5505" x2="743.6345" y2="1228.9688">
			<stop  offset="0" style="stop-color:#27AAE1"/>
			<stop  offset="0.9806" style="stop-color:#2B3990"/>
		</linearGradient>
		<path class="st4" d="M596.03,1557.02c7.54-2.6,14.89-5.4,22.08-8.85c1.2-0.82,2.08-1.18,2.82-1.24
			c3.58-12.99,16.47-23.96,28.43-30.49c25.11-13.67,51.11-25.56,76.02-39.68c17.89-10.14,34.99-21.54,51.94-33.15
			c1.24-3.47,2.55-6.83,3.81-10.01c8.12-20.61,21.48-37.23,37.31-52.28c-10.46-1.23-20.11-5.37-28.26-11.64
			c-10.7,11.15-24.2,19.55-37.18,27.78c-17.96,11.38-36.48,21.94-55.2,32.01c-4.25,2.31-8.54,4.63-12.85,6.93
			c6.61,6.56,13.81,11.87,21.93,16.62c-10.37-3.04-19.82-7.05-28.92-12.93c-23.53,12.31-47.98,23.78-73.4,30.88
			c0.03,0.02,0.06,0.05,0.09,0.07c-11.93,4.38-23.99,8.41-36.18,12.26c4.92,9.84,11.37,18.18,18.59,26.79
			c-11.93-6.43-22.72-13.05-32.35-22.54c-2.56,0.78-5.12,1.56-7.7,2.33c-15.64,4.31-30.82,10.32-44.94,18.27
			c5.8,7.28,11.62,14.31,18.47,20.71c7.86,6.18,15.87,11.87,24.18,17.44c-9.06-4.53-17.81-9.23-26.49-14.46
			c-8.26-5.93-15.45-12.72-22.69-19.82c-2.98,1.85-5.92,3.77-8.79,5.81c-18.34,13.1-36.85,30.99-42.3,53.61
			c-1.65,6.84-1.85,13.21-0.92,19.12c33.66-2.48,66.99-10.16,99.65-18.39C560.96,1567.71,578.7,1562.93,596.03,1557.02z"/>
		<linearGradient id="SVGID_4_" gradientUnits="userSpaceOnUse" x1="572.9581" y1="1894.6777" x2="853.5909" y2="1279.0961">
			<stop  offset="0" style="stop-color:#27AAE1"/>
			<stop  offset="0.9806" style="stop-color:#2B3990"/>
		</linearGradient>
		<path class="st5" d="M727.67,1611.2c37.16-32.85,72.33-67.31,106.05-103.66c-1.35,0.37-2.7,0.71-4.08,1
			c-17.91,3.87-39.81-0.58-51.26-15.95c-25.55,26.44-51.64,52.13-79.89,75.71c-29.7,24.83-60.39,48.43-89.76,73.67
			c-5.5,6.66-10.42,13.7-14.43,21.23c-6.21,11.68-9.39,27,0.35,37.75c9.46,10.41,25.25,12.72,38.62,12.52
			c8.19-15.16,17.73-29.15,29.51-42.24C682.49,1649.36,705.59,1630.59,727.67,1611.2z M599.71,1705.34
			c0.3-21.51,11.86-36.66,26.48-51.52c17.91-18.24,38.76-33.77,58.82-49.54c33.96-26.74,66.6-54.78,98.98-83.38
			c-28.71,32.83-60.3,62-94.31,89.28c-19.19,15.38-39.04,29.94-57.91,45.77C616.09,1670.03,602.98,1683.9,599.71,1705.34z"/>
		<linearGradient id="SVGID_5_" gradientUnits="userSpaceOnUse" x1="978.2122" y1="2079.426" x2="1258.845" y2="1463.8442">
			<stop  offset="0" style="stop-color:#27AAE1"/>
			<stop  offset="0.9806" style="stop-color:#2B3990"/>
		</linearGradient>
		<path class="st6" d="M1151.25,1657.67c-1.84,7.23-4.32,14.29-7.71,21.1c-7.29,14.65-18.9,25.21-33.95,26.2
			c0.67,6.82,1.24,13.67,2.12,20.46c2.16,16.91,5.47,34.03,9.84,50.5c8.33,31.43,18.48,62.27,36.46,89.57
			c-33.45-46.24-47.65-105.1-55.93-160.82c-1.81-0.25-3.66-0.59-5.55-1.11c-15.96-4.26-29.14-16.55-38.09-30.59
			c-4.92,25.93-8.25,52.08-7.57,78.61c1.61,31.26,7.89,59.72,20.97,88.08c2.69,4.7,5.65,9.23,9.05,13.47
			c12.84,16.08,31.57,27.92,52.73,26.94c18.09-0.86,34.28-10.63,46.23-23.79c6.39-7.03,11.41-14.62,15.45-22.57
			c-13.16-28.75-23.7-58.1-30.47-89.31C1158.63,1715.81,1154.54,1686.75,1151.25,1657.67z"/>
		<linearGradient id="SVGID_6_" gradientUnits="userSpaceOnUse" x1="444.1385" y1="1835.9512" x2="724.7714" y2="1220.3695">
			<stop  offset="0" style="stop-color:#27AAE1"/>
			<stop  offset="0.9806" style="stop-color:#2B3990"/>
		</linearGradient>
		<path class="st7" d="M624.71,1569.11c-3.03-4.72-4.48-9.36-4.72-13.84c-9.69,4.84-20.62,7.55-30.92,10.33
			c-17.66,4.79-35.53,8.72-53.46,12.34c-30.3,6.09-61.1,11.61-92.04,12.6c5.26,33.33,47.31,51.83,78.54,55.75
			c13.32,1.67,26.36,1.42,39.17-0.18c9.68-16.18,17-33.47,20.66-52.11c0.81,16.89-1.41,33.46-5.67,49.63
			c9.59-1.97,19.06-4.62,28.44-7.71c21.76-17.57,44.12-34.37,66.43-51.24C654.49,1585.29,634.41,1584.19,624.71,1569.11z"/>
		<linearGradient id="SVGID_7_" gradientUnits="userSpaceOnUse" x1="544.5966" y1="1881.7483" x2="825.2294" y2="1266.1665">
			<stop  offset="0" style="stop-color:#27AAE1"/>
			<stop  offset="0.9806" style="stop-color:#2B3990"/>
		</linearGradient>
		<path class="st8" d="M772.03,1477.41c-22.39,16.55-45.5,31.77-70.41,44.43c-24.33,12.85-56.77,21.85-70.78,47.27
			c8.68,11.79,26.87,13.51,41.06,15c7.4-5.6,14.79-11.2,22.13-16.87c29.81-23.03,57.32-48.53,84.3-74.73
			c-0.33-0.45-0.69-0.88-1.01-1.35C774.42,1486.86,772.77,1482.22,772.03,1477.41z"/>
		<linearGradient id="SVGID_8_" gradientUnits="userSpaceOnUse" x1="482.8408" y1="1853.5948" x2="763.4736" y2="1238.0132">
			<stop  offset="0" style="stop-color:#27AAE1"/>
			<stop  offset="0.9806" style="stop-color:#2B3990"/>
		</linearGradient>
		<path class="st9" d="M685.96,1431.08c20.98-10.12,41.7-20.88,61.86-32.52c14.63-8.45,30.14-17.06,42.29-28.95
			c-3.41-2.64-6.55-5.64-9.37-8.97c-2.2,0.98-4.39,1.99-6.61,2.92c-30.85,12.73-62.41,19.79-95.39,23.83
			c-19.34,2.29-38.78,6.45-56.67,14.36c-16.06,7.08-35.44,20.13-34.74,39.96c0.3,9.09,4.71,16.93,10.88,23.43
			c9.21-1.91,18.07-4.95,27-7.93C645.89,1449.57,666.08,1440.63,685.96,1431.08z"/>
		<linearGradient id="SVGID_9_" gradientUnits="userSpaceOnUse" x1="531.5817" y1="1875.8149" x2="812.2145" y2="1260.2333">
			<stop  offset="0" style="stop-color:#27AAE1"/>
			<stop  offset="0.9806" style="stop-color:#2B3990"/>
		</linearGradient>
		<path class="st10" d="M626.11,1551.74c0.02,0.02,0.03,0.04,0.05,0.06c-0.02,0.01-0.04,0.02-0.06,0.03
			c-0.45,3.7,0.04,7.7,1.78,12.03c0.77,1.91,1.76,3.58,2.89,5.13c12.65-25.39,43.27-35.69,66.65-49.07
			c26.39-15.09,50.72-32.39,74.24-51.58c0.42-7.91,2.61-15.99,5.26-23.58c-34.74,29.85-73.23,52.67-114.24,73.19
			C649.04,1524.79,628.17,1535.25,626.11,1551.74z"/>
		<linearGradient id="SVGID_10_" gradientUnits="userSpaceOnUse" x1="682.3513" y1="1944.5482" x2="962.9841" y2="1328.9664">
			<stop  offset="0" style="stop-color:#27AAE1"/>
			<stop  offset="0.9806" style="stop-color:#2B3990"/>
		</linearGradient>
		<path class="st11" d="M1044.8,1072.12c23.63-66.3,89.48-181.91,166.59-189.25l0.2-0.73c0.62-2.32,1.26-4.68,1.89-7.03
			c-84.4,5.34-154.07,131.39-176.87,197.56c0,0,2.07,5.25,8.77,13.46l5.61-5.19C1047.86,1077.09,1045.9,1074.04,1044.8,1072.12z"/>
		<linearGradient id="SVGID_11_" gradientUnits="userSpaceOnUse" x1="843.2873" y1="2017.9161" x2="1123.9202" y2="1402.3344">
			<stop  offset="0" style="stop-color:#27AAE1"/>
			<stop  offset="0.9806" style="stop-color:#2B3990"/>
		</linearGradient>
		<path class="st12" d="M1281.39,909.65c56.86,59.02,31.13,192.34,13.5,246.22c-1.99,0.44-4.82,0.99-8.37,1.54
			c0.32,2.42,0.26,5.24,0.08,7.69c9.22-1.38,14.14-2.89,14.14-2.89c22.29-64.64,45.39-200.49-16.12-260.11
			c-0.76,1.78-1.53,3.59-2.28,5.35L1281.39,909.65z"/>
		<linearGradient id="SVGID_12_" gradientUnits="userSpaceOnUse" x1="773.6734" y1="1986.1803" x2="1054.3063" y2="1370.5986">
			<stop  offset="0" style="stop-color:#27AAE1"/>
			<stop  offset="0.9806" style="stop-color:#2B3990"/>
		</linearGradient>
		<path class="st13" d="M1286.52,1157.41c-21.36,3.29-70.08,6.36-136.51-16.55c-60.16-20.74-87.55-45.79-99.02-59.92l-5.61,5.19
			c12.45,15.26,40.95,40.77,102.17,61.89c67.03,23.1,116.26,20.5,139.06,17.08C1286.78,1162.65,1286.84,1159.83,1286.52,1157.41z"/>
		<linearGradient id="SVGID_13_" gradientUnits="userSpaceOnUse" x1="687.2137" y1="1946.7649" x2="967.8466" y2="1331.1832">
			<stop  offset="0" style="stop-color:#27AAE1"/>
			<stop  offset="0.9806" style="stop-color:#2B3990"/>
		</linearGradient>
		<path class="st14" d="M1053.17,1071.28c23.22-62.63,86.73-172.66,158.16-180.64l-1.35-2.44l1.42-5.33
			c-77.11,7.34-142.96,122.95-166.59,189.25c1.1,1.92,3.05,4.96,6.19,8.82l5.54-5.13
			C1055.13,1074.08,1054.02,1072.55,1053.17,1071.28z"/>
		<linearGradient id="SVGID_14_" gradientUnits="userSpaceOnUse" x1="838.8606" y1="2015.8981" x2="1119.4934" y2="1400.3163">
			<stop  offset="0" style="stop-color:#27AAE1"/>
			<stop  offset="0.9806" style="stop-color:#2B3990"/>
		</linearGradient>
		<path class="st15" d="M1276.53,915.56c52.3,55.01,29.55,179.17,12.5,233.85c-1.16,0.22-2.48,0.44-3.91,0.66l1.3,6.53
			c0.05,0.26,0.07,0.54,0.11,0.81c3.56-0.55,6.38-1.1,8.37-1.54c17.63-53.88,43.36-187.2-13.5-246.22l-2.34,5.45L1276.53,915.56z"/>
		<linearGradient id="SVGID_15_" gradientUnits="userSpaceOnUse" x1="773.5308" y1="1986.1154" x2="1054.1637" y2="1370.5336">
			<stop  offset="0" style="stop-color:#27AAE1"/>
			<stop  offset="0.9806" style="stop-color:#2B3990"/>
		</linearGradient>
		<path class="st16" d="M1285.12,1150.07c-20.3,3.17-67.28,6.18-132.65-16.36c-59.58-20.54-85.68-45.12-95.93-57.89l-5.54,5.13
			c11.47,14.13,38.86,39.18,99.02,59.92c66.43,22.91,115.15,19.84,136.51,16.55c-0.04-0.27-0.06-0.55-0.11-0.81L1285.12,1150.07z"/>
		<linearGradient id="SVGID_16_" gradientUnits="userSpaceOnUse" x1="709.4854" y1="1956.9181" x2="990.1182" y2="1341.3364">
			<stop  offset="0" style="stop-color:#27AAE1"/>
			<stop  offset="0.9806" style="stop-color:#2B3990"/>
		</linearGradient>
		<path class="st17" d="M1553.15,133.42c-5.92-19.69-17.29-33.32-32-38.4c-4.23-1.46-8.73-2.2-13.41-2.2
			c-27.43,0-56.81,25.82-64.76,48.91c-1.53,4.45-158.34,469.25-229.5,733.37c2.68-0.17,5.38-0.22,8.09-0.14
			c70.26-260.09,227.24-726.27,228.74-730.67c6.97-20.22,33.58-43.7,57.43-43.7c3.81,0,7.46,0.6,10.87,1.77
			c12.29,4.24,21.92,16.07,27.1,33.29c4.39,14.57,4.71,30.59,0.84,41.79c-1.63,4.74-162.63,471.75-268.06,719.19
			c2.13,1.74,4.17,3.56,6.12,5.45c105.52-247.07,267.64-717.36,269.28-722.12C1558.28,167.31,1557.99,149.47,1553.15,133.42z"/>
		<linearGradient id="SVGID_17_" gradientUnits="userSpaceOnUse" x1="754.2139" y1="1977.3091" x2="1034.8468" y2="1361.7274">
			<stop  offset="0" style="stop-color:#27AAE1"/>
			<stop  offset="0.9806" style="stop-color:#2B3990"/>
		</linearGradient>
		<path class="st18" d="M1253.8,910.82c-4.6,0-8.91-0.71-13.15-2.18c-11.23-3.87-16.6-11.14-20.69-18.47
			c-2.89-0.02-5.76,0.15-8.63,0.47l1.69,3.05c4.62,8.35,11.22,17.52,25.1,22.31c5.07,1.75,10.2,2.59,15.68,2.59
			c5.77,0,11.36-0.93,17.07-1.99l5.66-1.03c-2.22-2.33-4.58-4.53-7.07-6.6l-0.01,0C1263.92,909.98,1258.91,910.82,1253.8,910.82z"/>
		<linearGradient id="SVGID_18_" gradientUnits="userSpaceOnUse" x1="722.3466" y1="1962.7814" x2="1002.9795" y2="1347.1996">
			<stop  offset="0" style="stop-color:#27AAE1"/>
			<stop  offset="0.9806" style="stop-color:#2B3990"/>
		</linearGradient>
		<path class="st19" d="M1211.39,882.88c2.7-0.26,5.42-0.38,8.15-0.36c0.67-2.49,1.35-5.02,2.03-7.55
			c-2.71-0.08-5.41-0.03-8.09,0.14c-0.63,2.35-1.27,4.72-1.89,7.03L1211.39,882.88z"/>
		<linearGradient id="SVGID_19_" gradientUnits="userSpaceOnUse" x1="784.0515" y1="1990.9115" x2="1064.6843" y2="1375.3298">
			<stop  offset="0" style="stop-color:#27AAE1"/>
			<stop  offset="0.9806" style="stop-color:#2B3990"/>
		</linearGradient>
		<path class="st20" d="M1275.37,903.96c2.1,1.81,4.11,3.7,6.02,5.68l0.95-2.2c0.76-1.76,1.52-3.57,2.28-5.35
			c-1.96-1.9-3.99-3.72-6.12-5.45C1277.45,899.09,1276.41,901.56,1275.37,903.96z"/>
		<linearGradient id="SVGID_20_" gradientUnits="userSpaceOnUse" x1="782.6908" y1="1990.2911" x2="1063.3236" y2="1374.7095">
			<stop  offset="0" style="stop-color:#27AAE1"/>
			<stop  offset="0.9806" style="stop-color:#2B3990"/>
		</linearGradient>
		<path class="st21" d="M1273.55,908.2l-4.1,0.75c2.49,2.07,4.86,4.27,7.07,6.6l2.52-0.46l2.34-5.45c-1.91-1.98-3.92-3.87-6.02-5.68
			c-0.06,0.14-0.12,0.28-0.18,0.41L1273.55,908.2z"/>
		<linearGradient id="SVGID_21_" gradientUnits="userSpaceOnUse" x1="724.5652" y1="1963.7928" x2="1005.1981" y2="1348.2111">
			<stop  offset="0" style="stop-color:#27AAE1"/>
			<stop  offset="0.9806" style="stop-color:#2B3990"/>
		</linearGradient>
		<path class="st22" d="M1211.33,890.64c2.86-0.32,5.74-0.49,8.63-0.47c-0.05-0.08-0.1-0.17-0.15-0.25l-1.51-2.74l0.8-3.04
			c0.14-0.54,0.29-1.09,0.44-1.63c-2.73-0.02-5.44,0.1-8.15,0.36l-1.42,5.33L1211.33,890.64z"/>
		<linearGradient id="SVGID_22_" gradientUnits="userSpaceOnUse" x1="709.4546" y1="1956.9041" x2="990.0874" y2="1341.3224">
			<stop  offset="0" style="stop-color:#27AAE1"/>
			<stop  offset="0.9806" style="stop-color:#2B3990"/>
		</linearGradient>
		<path class="st23" d="M1457.67,146.82c5.82-16.91,29.65-38.44,50.07-38.44c2.87,0,5.66,0.42,8.34,1.34
			c21.7,7.48,29.78,45.93,23.12,65.2c-6.7,19.5-163.09,472.44-267.12,716.95c2.22,1.52,4.36,3.1,6.41,4.77
			c105.42-247.45,266.43-714.46,268.06-719.19c3.87-11.2,3.55-27.22-0.84-41.79c-5.18-17.22-14.81-29.05-27.1-33.29
			c-3.41-1.17-7.06-1.77-10.87-1.77c-23.86,0-50.46,23.48-57.43,43.7c-1.5,4.4-158.48,470.58-228.74,730.67
			c2.62,0.08,5.25,0.26,7.89,0.58C1300.38,613.39,1456.2,151.1,1457.67,146.82z"/>
		<linearGradient id="SVGID_23_" gradientUnits="userSpaceOnUse" x1="753.523" y1="1976.9941" x2="1034.1559" y2="1361.4124">
			<stop  offset="0" style="stop-color:#27AAE1"/>
			<stop  offset="0.9806" style="stop-color:#2B3990"/>
		</linearGradient>
		<path class="st24" d="M1243.19,901.3c-6.28-2.16-10.23-5.51-13.65-10.4c-3.21-0.45-6.4-0.71-9.59-0.73
			c4.09,7.33,9.46,14.6,20.69,18.47c4.24,1.46,8.55,2.18,13.15,2.18c5.11,0,10.12-0.84,15.65-1.86l0.01,0
			c-2.77-2.3-5.68-4.46-8.81-6.42c-2.37,0.32-4.62,0.51-6.85,0.51C1250.28,903.05,1246.84,902.56,1243.19,901.3z"/>
		<linearGradient id="SVGID_24_" gradientUnits="userSpaceOnUse" x1="776.9322" y1="1987.6659" x2="1057.5651" y2="1372.0842">
			<stop  offset="0" style="stop-color:#27AAE1"/>
			<stop  offset="0.9806" style="stop-color:#2B3990"/>
		</linearGradient>
		<path class="st25" d="M1269.04,899c2.2,1.57,4.31,3.22,6.33,4.96c1.03-2.41,2.08-4.87,3.13-7.32c-2.05-1.67-4.2-3.26-6.41-4.77
			C1271.07,894.27,1270.05,896.64,1269.04,899z"/>
		<linearGradient id="SVGID_25_" gradientUnits="userSpaceOnUse" x1="729.0352" y1="1965.8306" x2="1009.668" y2="1350.2488">
			<stop  offset="0" style="stop-color:#27AAE1"/>
			<stop  offset="0.9806" style="stop-color:#2B3990"/>
		</linearGradient>
		<path class="st26" d="M1227.47,882.96c0.66-2.46,1.32-4.92,2-7.42c-2.64-0.32-5.27-0.5-7.89-0.58c-0.68,2.53-1.36,5.06-2.03,7.55
			C1222.17,882.53,1224.81,882.68,1227.47,882.96z"/>
		<linearGradient id="SVGID_26_" gradientUnits="userSpaceOnUse" x1="731.9763" y1="1967.1714" x2="1012.6091" y2="1351.5896">
			<stop  offset="0" style="stop-color:#27AAE1"/>
			<stop  offset="0.9806" style="stop-color:#2B3990"/>
		</linearGradient>
		<path class="st27" d="M1218.3,887.18l1.51,2.74c0.05,0.08,0.1,0.17,0.15,0.25c3.18,0.02,6.38,0.27,9.59,0.73
			c-1.01-1.45-1.98-3.01-2.94-4.74c0.28-1.05,0.58-2.14,0.86-3.19c-2.65-0.28-5.3-0.43-7.93-0.45c-0.14,0.54-0.29,1.09-0.44,1.63
			L1218.3,887.18z"/>
		<linearGradient id="SVGID_27_" gradientUnits="userSpaceOnUse" x1="774.2563" y1="1986.446" x2="1054.8892" y2="1370.8644">
			<stop  offset="0" style="stop-color:#27AAE1"/>
			<stop  offset="0.9806" style="stop-color:#2B3990"/>
		</linearGradient>
		<path class="st28" d="M1268.05,901.31c-2.62,0.48-5.07,0.91-7.41,1.23c3.12,1.95,6.04,4.12,8.81,6.42l4.1-0.75l1.64-3.83
			c0.06-0.14,0.12-0.28,0.18-0.41c-2.02-1.74-4.13-3.39-6.33-4.96C1268.71,899.77,1268.38,900.55,1268.05,901.31z"/>
		<linearGradient id="SVGID_28_" gradientUnits="userSpaceOnUse" x1="703.8788" y1="1954.3622" x2="984.5116" y2="1338.7805">
			<stop  offset="0" style="stop-color:#27AAE1"/>
			<stop  offset="0.9806" style="stop-color:#2B3990"/>
		</linearGradient>
		<path class="st29" d="M1096.83,1046.74c14.05-21.1,26.46-43.38,41.7-63.65c18.61-28.48,42.83-51.33,70.62-70.5
			c-61.3,14-99.24,75.89-120.2,133.25l1.43-1.32L1096.83,1046.74z"/>
		<linearGradient id="SVGID_29_" gradientUnits="userSpaceOnUse" x1="683.2099" y1="1944.9396" x2="963.8427" y2="1329.3579">
			<stop  offset="0" style="stop-color:#27AAE1"/>
			<stop  offset="0.9806" style="stop-color:#2B3990"/>
		</linearGradient>
		<path class="st30" d="M1096.83,1046.74l-6.46-2.23l-1.43,1.32c-2.73,7.48-5.19,14.89-7.36,22.1
			C1086.98,1061.1,1092,1053.99,1096.83,1046.74z"/>
		<linearGradient id="SVGID_30_" gradientUnits="userSpaceOnUse" x1="701.4434" y1="1953.252" x2="982.0763" y2="1337.6703">
			<stop  offset="0" style="stop-color:#27AAE1"/>
			<stop  offset="0.9806" style="stop-color:#2B3990"/>
		</linearGradient>
		<path class="st31" d="M1472.77,149.07c-26.86,73.17-52.93,146.59-77.7,220.49c-31.08,92.69-60.16,185.95-88.72,279.44
			c-23.15,75.82-43.44,152.55-63.7,229.19c0.02,0.01,0.05,0.01,0.07,0.02c23.07-73.81,44.99-147.97,68.18-221.75
			C1364.09,487.07,1419.06,318.28,1472.77,149.07z"/>
		<linearGradient id="SVGID_31_" gradientUnits="userSpaceOnUse" x1="743.8807" y1="1972.5984" x2="1024.5135" y2="1357.0166">
			<stop  offset="0" style="stop-color:#27AAE1"/>
			<stop  offset="0.9806" style="stop-color:#2B3990"/>
		</linearGradient>
		<path class="st32" d="M1242.2,879.87c0.17-0.55,0.34-1.11,0.52-1.66c-0.02-0.01-0.05-0.01-0.07-0.02
			C1242.49,878.75,1242.35,879.31,1242.2,879.87z"/>
	</g>
</g>
</svg>
