<svg id="Layer_1" enable-background="new 0 0 512 512" height="512" viewBox="0 0 512 512" width="512" xmlns="http://www.w3.org/2000/svg"><g><path d="m401 59.555c4.143 0 7.5-3.358 7.5-7.5v-21.919c0-16.617-13.52-30.136-30.137-30.136h-244.726c-16.617 0-30.137 13.519-30.137 30.136v451.728c0 16.617 13.52 30.136 30.137 30.136h244.727c16.617 0 30.137-13.519 30.137-30.136v-394.776c0-4.142-3.357-7.5-7.5-7.5s-7.5 3.358-7.5 7.5v374.912h-194.941c-4.143 0-7.5 3.358-7.5 7.5s3.357 7.5 7.5 7.5h194.94v4.864c0 8.346-6.79 15.136-15.137 15.136h-244.726c-8.347 0-15.137-6.79-15.137-15.136v-4.864h45.462c4.143 0 7.5-3.358 7.5-7.5s-3.357-7.5-7.5-7.5h-45.462v-431.864c0-8.346 6.79-15.136 15.137-15.136h39.863v14.55c0 10.889 8.859 19.748 19.748 19.748h125.504c10.889 0 19.748-8.859 19.748-19.748v-14.55h39.863c8.347 0 15.137 6.79 15.137 15.136v21.919c0 4.142 3.357 7.5 7.5 7.5zm-77.5-30.005c0 2.618-2.13 4.748-4.748 4.748h-125.504c-2.618 0-4.748-2.13-4.748-4.748v-14.55h135z"/><path d="m225.442 226.906c.072-.052.144-.106.214-.161 6.358-4.954 7.842-14.091 3.373-20.808l-25.556-38.337c-4.594-6.89-13.755-8.95-20.858-4.691l-15.979 9.586c-6.02 3.546-10.389 9.2-12.32 15.989-6.075 22.149-1.782 60.085 53.167 115.036 43.476 43.475 76.298 55.238 99.114 55.238 6.021 0 11.349-.82 15.988-2.093 6.721-1.913 12.374-6.282 15.889-12.249l9.619-16.032c4.258-7.102 2.196-16.263-4.692-20.857-.001 0-.001 0-.001 0l-38.343-25.561c-6.709-4.463-15.847-2.98-20.802 3.377-.055.07-.107.142-.16.214l-8.229 11.376c-.141.15-.362.189-.535.093-.711-.396-1.435-.79-2.178-1.194-6.801-3.702-15.266-8.309-32.458-25.522-17.246-17.269-21.857-25.73-25.563-32.529-.393-.72-.775-1.422-1.151-2.1-.103-.184-.065-.408.085-.548zm-24.578 16.054c.363.654.726 1.319 1.097 2 4.166 7.643 9.35 17.155 28.121 35.951 18.727 18.751 28.25 23.934 35.901 28.098.701.381 1.385.753 2.069 1.134 6.734 3.729 15.03 2.008 19.727-4.09.046-.06.091-.12.135-.181l8.209-11.35c.163-.167.426-.199.62-.071l38.336 25.557c.219.146.284.438.149.661l-9.649 16.083c-1.581 2.685-4.103 4.633-7.032 5.467-34.929 9.579-77.931-26.78-100.457-49.306-22.527-22.527-58.889-65.534-49.329-100.392.854-2.998 2.803-5.521 5.54-7.133l16.028-9.616c.08-.048.167-.071.254-.071.159 0 .314.078.409.219l25.553 38.331c.132.198.1.463-.067.626l-11.35 8.209c-.061.044-.121.089-.18.135-6.098 4.696-7.819 12.991-4.084 19.739z"/><path d="m299.506 259.734c0 4.142 3.357 7.5 7.5 7.5s7.5-3.358 7.5-7.5c0-34.871-28.369-63.24-63.239-63.24-4.143 0-7.5 3.358-7.5 7.5s3.357 7.5 7.5 7.5c26.599 0 48.239 21.64 48.239 48.24z"/><path d="m359.767 259.734c0-59.827-48.673-108.5-108.5-108.5-4.143 0-7.5 3.358-7.5 7.5s3.357 7.5 7.5 7.5c51.556 0 93.5 41.944 93.5 93.5 0 4.142 3.357 7.5 7.5 7.5s7.5-3.358 7.5-7.5z"/></g></svg>