<?xml version="1.0"?>
<svg xmlns="http://www.w3.org/2000/svg" xmlns:xlink="http://www.w3.org/1999/xlink" xmlns:svgjs="http://svgjs.com/svgjs" version="1.1" width="512" height="512" x="0" y="0" viewBox="0 0 61 48" style="enable-background:new 0 0 512 512" xml:space="preserve" class=""><g><g xmlns="http://www.w3.org/2000/svg" id="Page-1" fill="none" fill-rule="evenodd"><g id="009---Dusting" fill="rgb(0,0,0)" fill-rule="nonzero"><path id="Shape" d="m24.264 15.6c.1409727-.2248653.1867741-.4965474.1273154-.7552023-.0594588-.2586549-.2193001-.4830645-.4443154-.6237977-1.2981875-.8083647-2.7977098-1.2349679-4.327-1.231-3.1444668.012813-6.0070156 1.8156328-7.377 4.646-.2066464.4911019.0080503 1.0579806.4881802 1.2889765.48013.2309958 1.0570549.0449751 1.3118198-.4229765 1.0352309-2.1401281 3.1996543-3.5031288 5.577-3.512 1.1538004-.0038074 2.2853414.3174601 3.265.927.2248653.1409727.4965474.1867741.7552023.1273154.2586549-.0594588.4830645-.2193001.6237977-.4443154z" fill="#ffffff" data-original="#000000" style=""/><path id="Shape" d="m0 33.05c.00451546 4.1035116 2.17432468 7.9000044 5.70768415 9.986676 3.53335948 2.0866717 7.90565135 2.1537022 11.50131585.176324 5.425179 5.6825503 14.2906908 6.2843152 20.434 1.387 4.4293962 2.8220759 10.1313864 2.6600756 14.3934099-.4089338 4.2620235-3.0690095 6.22361-8.4254182 4.9515901-13.5210662 3.0098862-2.9163909 3.9502831-7.3668469 2.3774966-11.2515725-1.5727866-3.8847257-5.3444645-6.427431-9.5354966-6.4284275-.276 0-.5526667.011-.83.033-.5506279.0441828-.9611828.5263721-.917 1.077s.5263721.9611828 1.077.917c.2233333-.018.4466667-.027.67-.027 3.4721395.0028274 6.5749387 2.1683795 7.7750902 5.4265073 1.2001515 3.2581279.2435466 6.9189865-2.3970902 9.1734927-.2991445.2596852-.4167984.671474-.3 1.05.3106675 1.0200567.4677228 2.0806853.466 3.147.001174 4.798036-3.1525482 9.0258015-7.7519657 10.392004s-9.5497232-.4543576-12.1680343-4.475004c-.302652-.4639192-.9240808-.594652-1.388-.292s-.594652.9240808-.292 1.388c.6228363.9494892 1.3678975 1.8128994 2.216 2.568-5.5730843 4.073699-13.343786 3.1652937-17.827-2.084-.3266558-.3848695-.8889359-.4659305-1.311-.189-2.953055 1.92192-6.7210809 2.0737085-9.81915898.3955481-3.09807812-1.6781604-5.0293917-4.9171551-5.03284102-8.4405481.00996618-3.3997111 1.80886852-6.5431362 4.735-8.274 3.17551398-1.8075734 7.0804032-1.7559264 10.207.135.3126074.1730952.6938137.1662677 1.0000223-.0179107.3062085-.1841783.4908988-.5177264.4845-.875-.0063989-.3572735-.2029149-.6839941-.5155223-.8570893-2.5542425-1.4737068-5.5456381-2.0015376-8.45-1.491-.009-.167-.021-.335-.021-.5.00291129-3.6982279 2.0096825-7.104463 5.2430844-8.899459s7.185608-1.6968373 10.3259156.256459c.2270654.1439327.5025208.1903763.7642273.1288536.2617064-.0615226.4876182-.2258289.6267727-.4558536 1.9040921-3.16033082 5.133559-5.29174959 8.788-5.8.5371259-.08374601.9089665-.58123899.8371915-1.12009514-.0717749-.53885615-.5608718-.92167329-1.1011915-.86190486-3.9173138.54450932-7.4314729 2.69430517-9.7 5.934-3.776937-1.95077777-8.2973347-1.79308391-11.92915.4161478-3.63181519 2.2092318-5.85043521 6.1508797-5.85485 10.4018522 0 .347.021.7.053 1.049-4.52770357 1.6742428-7.52290574 6.003755-7.493 10.831z" fill="#ffffff" data-original="#000000" style=""/><path id="Shape" d="m51.37 33.79c-.0038584 3.7760283-3.0639717 6.8361416-6.84 6.84-.5522847 0-1 .4477153-1 1s.4477153 1 1 1c4.8799127-.0055109 8.8344891-3.9600873 8.84-8.84 0-.5522847-.4477153-1-1-1s-1 .4477153-1 1z" fill="#ffffff" data-original="#000000" style=""/><path id="Shape" d="m33 10c0 .5522847.4477153 1 1 1 6.891 0 7 7.675 7 8 0 .5522847.4477153 1 1 1s1-.4477153 1-1c0-.327.109-8 7-8 .5522847 0 1-.4477153 1-1 0-.55228475-.4477153-1-1-1-6.891 0-7-7.675-7-8 0-.55228475-.4477153-1-1-1s-1 .44771525-1 1c0 .327-.109 8-7 8-.5522847 0-1 .44771525-1 1zm9-4.248c.7262879 1.79698414 2.0405279 3.2945409 3.728 4.248-1.6874721.9534591-3.0017121 2.4510159-3.728 4.248-.7262879-1.7969841-2.0405279-3.2945409-3.728-4.248 1.6874721-.9534591 3.0017121-2.45101586 3.728-4.248z" fill="#ffffff" data-original="#000000" style=""/><path id="Shape" d="m26 41.005v.006c.0030376.5522847.4532153.9975376 1.0055.9945s.9975376-.4532153.9945-1.0055c0-.245.084-6 5-6 .5522847 0 1-.4477153 1-1s-.4477153-1-1-1c-4.916 0-5-5.757-5-6v-.006c-.0016569-.5522847-.4507153-.9986568-1.003-.997-.5522847.0016569-.9986568.4507153-.997 1.003 0 .245-.084 6-5 6-.5522847 0-1 .4477153-1 1s.4477153 1 1 1c4.916 0 5 5.757 5 6zm-1.344-7.005c1.0127803-.6751749 1.8229954-1.6129367 2.344-2.713.5210046 1.1000633 1.3312197 2.0378251 2.344 2.713-1.0125793.6754027-1.8227409 1.6131025-2.344 2.713-.5212591-1.0998975-1.3314207-2.0375973-2.344-2.713z" fill="#ffffff" data-original="#000000" style=""/><path id="Shape" d="m48.156 23.441c-4.6372722-1.3873112-9.6361487.4235581-12.309 4.459-.306518.4595009-.1825009 1.0804819.277 1.387.4595009.306518 1.080482.1825009 1.387-.277 2.1984664-3.3077942 6.3030597-4.7866013 10.106-3.641.344162.0966368.7137336.0022116.9693603-.2476707.2556267-.2498822.3584258-.6172127.2696348-.9634818-.0887909-.3462691-.3556663-.618807-.6999951-.7148475z" fill="#ffffff" data-original="#000000" style=""/></g></g></g></svg>
