<?xml version="1.0" encoding="iso-8859-1"?>
<!-- Generator: Adobe Illustrator 19.0.0, SVG Export Plug-In . SVG Version: 6.00 Build 0)  -->
<svg version="1.1" id="Capa_1" xmlns="http://www.w3.org/2000/svg" xmlns:xlink="http://www.w3.org/1999/xlink" x="0px" y="0px"
	 viewBox="0 0 474.816 474.816" style="enable-background:new 0 0 474.816 474.816;" xml:space="preserve">
<linearGradient id="SVGID_1_" gradientUnits="userSpaceOnUse" x1="-60.788" y1="594.177" x2="-4.343" y2="594.177" gradientTransform="matrix(8 0 0 -8 493.1079 4891.9683)">
	<stop  offset="0" style="stop-color:#006DF0"/>
	<stop  offset="1" style="stop-color:#00E7F0"/>
</linearGradient>
<path style="fill:url(#SVGID_1_);" d="M218.556,277.104l-33.464-42.12c-50.072-63.056-60.168-65.76-135.04-36.192l-50.048,19.76
	l42.12-33.464c63.048-50.072,65.752-60.168,36.2-135.048L58.556,0L92.02,42.12c50.064,63.048,60.168,65.744,135.04,36.192
	l50.048-19.76l-42.12,33.464c-63.048,50.072-65.752,60.168-36.2,135.048L218.556,277.104z M115.356,164.624
	c20.08,0,35.56,8.552,54.28,27.76c-10.552-37.424-5.096-57.776,22.752-84.912c-37.424,10.552-57.768,5.096-84.912-22.752
	c10.552,37.424,5.096,57.776-22.752,84.912C94.659,166.575,104.965,164.89,115.356,164.624z"/>
<g>
	
		<linearGradient id="SVGID_2_" gradientUnits="userSpaceOnUse" x1="-60.788" y1="565.177" x2="-4.343" y2="565.177" gradientTransform="matrix(8 0 0 -8 493.1079 4891.9683)">
		<stop  offset="0" style="stop-color:#006DF0"/>
		<stop  offset="1" style="stop-color:#00E7F0"/>
	</linearGradient>
	<path style="fill:url(#SVGID_2_);" d="M230.748,474.816l-33.456-42.128c-30.608-38.552-35.144-39.776-80.952-21.696l-50.04,19.76
		l42.12-33.464c38.56-30.624,39.776-35.16,21.696-80.952l-19.752-50.048l33.456,42.128c30.608,38.552,35.144,39.776,80.952,21.696
		l50.04-19.76l-42.12,33.464c-38.56,30.624-39.776,35.16-21.696,80.952L230.748,474.816z M156.212,383.848
		c10.648,0.066,20.877,4.159,28.632,11.456c-3.267-13.955,0.681-28.619,10.512-39.048c-13.946,3.28-28.607-0.646-39.048-10.456
		c3.277,13.949-0.655,28.611-10.472,39.048C149.258,384.209,152.731,383.875,156.212,383.848z"/>
	
		<linearGradient id="SVGID_3_" gradientUnits="userSpaceOnUse" x1="-60.788" y1="587.177" x2="-4.343" y2="587.177" gradientTransform="matrix(8 0 0 -8 493.1079 4891.9683)">
		<stop  offset="0" style="stop-color:#006DF0"/>
		<stop  offset="1" style="stop-color:#00E7F0"/>
	</linearGradient>
	<path style="fill:url(#SVGID_3_);" d="M430.748,298.816l-33.456-42.128c-30.608-38.544-35.152-39.784-80.952-21.696l-50.04,19.76
		l42.12-33.464c38.56-30.624,39.776-35.16,21.696-80.952l-19.752-50.048l33.456,42.128c30.608,38.552,35.144,39.784,80.952,21.696
		l50.04-19.76l-42.12,33.464c-38.56,30.624-39.776,35.16-21.696,80.952L430.748,298.816z M356.212,207.848
		c10.648,0.066,20.877,4.159,28.632,11.456c-3.267-13.955,0.681-28.619,10.512-39.048c-13.946,3.28-28.607-0.646-39.048-10.456
		c3.277,13.949-0.655,28.611-10.472,39.048C349.258,208.209,352.731,207.875,356.212,207.848z"/>
</g>
<g>
</g>
<g>
</g>
<g>
</g>
<g>
</g>
<g>
</g>
<g>
</g>
<g>
</g>
<g>
</g>
<g>
</g>
<g>
</g>
<g>
</g>
<g>
</g>
<g>
</g>
<g>
</g>
<g>
</g>
</svg>
